<?xml version="1.0" encoding="UTF-8"?>
<svg version="1.1" xmlns="http://www.w3.org/2000/svg" width="500" height="375">
<path d="M0 0 C3.93586417 0.8199717 5.46451148 2.72825454 8 5.625 C9.49179599 7.13315938 10.99254364 8.63249362 12.5 10.125 C14 11.625 15.5 13.125 17 14.625 C17.82242188 15.42679688 18.64484375 16.22859375 19.4921875 17.0546875 C22.04707344 19.67324661 24.3373469 22.39632964 26.625 25.25 C29.4140155 28.81924571 29.4140155 28.81924571 32.59619141 32.01515198 C34.38139157 34.06236907 34.43110678 35.21509329 34.546875 37.90600586 C34.6094751 39.19896828 34.6094751 39.19896828 34.67333984 40.51805115 C34.71128662 41.91483849 34.71128662 41.91483849 34.75 43.33984375 C34.77658691 44.30596085 34.80317383 45.27207794 34.83056641 46.26747131 C34.87646659 48.31753176 34.912828 50.36782444 34.94042969 52.41821289 C34.97985215 54.49904058 35.04780037 56.579541 35.14550781 58.65844727 C35.99653193 76.81218107 35.99653193 76.81218107 31.23510742 82.5625 C28.60085117 85.19371687 25.74550787 87.37917161 22.66264343 89.45703125 C19.99651806 91.32992297 17.69582501 93.53137816 15.3125 95.75 C14.52488281 96.45382813 13.73726563 97.15765625 12.92578125 97.8828125 C11.58511243 99.09566908 10.27836105 100.34663895 9 101.625 C6.875 101.25 6.875 101.25 5 100.625 C4.98786972 99.44775864 4.98786972 99.44775864 4.97549438 98.24673462 C4.89763628 90.85970432 4.81037274 83.47287407 4.71247292 76.08608437 C4.66247216 72.28822119 4.61614275 68.49038634 4.578125 64.69238281 C4.54131951 61.02885046 4.49497307 57.365553 4.44193649 53.70222092 C4.42336721 52.30279017 4.40826864 50.90330902 4.39665604 49.50380325 C4.37983757 47.5475205 4.34966647 45.59136619 4.31884766 43.63525391 C4.30552399 42.5205069 4.29220032 41.40575989 4.2784729 40.25723267 C4.26234802 37.46815432 4.26234802 37.46815432 2 35.625 C-0.45709375 35.04149495 -0.45709375 35.04149495 -3 35.625 C-5.83548454 39.34071102 -6.36971728 42.08643078 -6.34057617 46.70043945 C-6.34034958 47.90130692 -6.34012299 49.10217438 -6.33988953 50.33943176 C-6.32440567 51.62605209 -6.30892181 52.91267242 -6.29296875 54.23828125 C-6.28736869 55.57634505 -6.28310053 56.91441502 -6.28010559 58.25248718 C-6.26868892 61.76251412 -6.23924987 65.27216456 -6.20599365 68.78204346 C-6.17522371 72.36831572 -6.16158553 75.95464922 -6.14648438 79.54101562 C-6.11437655 86.5691644 -6.06321917 93.59706409 -6 100.625 C-7.88378906 101.21289062 -7.88378906 101.21289062 -10 101.625 C-11.859375 100.21875 -11.859375 100.21875 -13.75 98.125 C-16.40730711 95.29546002 -19.0621853 92.60128081 -22 90.0625 C-22.65097656 89.485 -23.30195313 88.9075 -23.97265625 88.3125 C-25.98038471 86.58117064 -25.98038471 86.58117064 -28.24609375 85.125 C-31.65064456 82.69751279 -33.74425553 80.97628456 -34.54467773 76.74707031 C-34.61344116 75.08562988 -34.61344116 75.08562988 -34.68359375 73.390625 C-34.74135986 72.14531006 -34.79912598 70.89999512 -34.85864258 69.61694336 C-34.9286145 67.6409314 -34.9286145 67.6409314 -35 65.625 C-35.07049561 64.31732666 -35.14099121 63.00965332 -35.21362305 61.66235352 C-35.39385233 58.27564923 -35.49974743 54.89189033 -35.56982422 51.5012207 C-35.60676741 50.11944734 -35.66161908 48.73804271 -35.73388672 47.35766602 C-36.1342525 39.51916818 -35.84644816 33.73012123 -30.7265625 27.375 C-27.30563022 23.71884772 -23.63335606 20.3713967 -19.77734375 17.1796875 C-18.08341394 15.69796428 -16.71412655 14.19280802 -15.3125 12.4375 C-13.06032072 9.69836304 -10.79112332 7.78812057 -8 5.625 C-7.195625 4.7175 -6.39125 3.81 -5.5625 2.875 C-3 0.625 -3 0.625 0 0 Z " fill="#3380BA" transform="translate(256,146.375)"/>
<path d="M0 0 C3.2688584 2.03893676 6.08248304 4.49548907 9 7 C10.34357053 7.95262367 11.69676499 8.89193415 13.0625 9.8125 C14.031875 10.534375 15.00125 11.25625 16 12 C16 12.66 16 13.32 16 14 C16.83724609 14.37511719 16.83724609 14.37511719 17.69140625 14.7578125 C30.21304871 21.49534601 45.27329799 35.06212796 50.3125 48.5 C51.8956743 56.55979644 51.8956743 56.55979644 51 60 C48.98947193 62.72776702 46.56959219 64.80970312 44 67 C43.0925 67.928125 42.185 68.85625 41.25 69.8125 C39 72 39 72 36 74 C32.67759676 73.6758631 31.39223697 73.39223697 29 71 C28.34989513 69.49822936 27.75233655 67.97337469 27.1875 66.4375 C23.13912216 56.19142371 18.52595857 50.08495149 10 43 C8.72862868 41.87560802 7.45772256 40.75068957 6.1875 39.625 C2.365314 36.39920877 2.365314 36.39920877 -2 34 C-6.09000393 35.30845465 -8.17698782 38.31272672 -10.8125 41.5625 C-11.46943848 42.3683252 -11.46943848 42.3683252 -12.13964844 43.19042969 C-16.8946663 49.04624289 -21.52138509 54.99279822 -26 61.0625 C-29.37339127 65.59066403 -33.00327781 70.00327781 -37 74 C-41.03060042 74.08225715 -43.03016181 73.78273666 -46.20703125 71.21875 C-53.13506084 64.32816922 -53.13506084 64.32816922 -53.375 58.625 C-53.26106436 48.76956676 -48.25516234 40.31081946 -42 33 C-41.45730469 32.360625 -40.91460937 31.72125 -40.35546875 31.0625 C-39.3445641 29.88188143 -38.32604399 28.70770032 -37.296875 27.54296875 C-35.79969526 25.81949659 -35.79969526 25.81949659 -34 23 C-33.34 23 -32.68 23 -32 23 C-31.73316406 22.41476563 -31.46632812 21.82953125 -31.19140625 21.2265625 C-29.55567724 18.16962632 -27.37726379 15.86342241 -25.06640625 13.296875 C-23.59390102 11.6601395 -22.14583172 10.00128016 -20.71484375 8.328125 C-19.55662109 6.99007812 -19.55662109 6.99007812 -18.375 5.625 C-17.66085938 4.79226562 -16.94671875 3.95953125 -16.2109375 3.1015625 C-11.37851826 -1.49179713 -6.18507119 -1.9038737 0 0 Z " fill="#E19F27" transform="translate(256,91)"/>
<path d="M0 0 C6.99836438 4.65660399 12.88347634 11.7623072 15 20 C15.98725816 28.62364053 14.8248828 34.79040387 9.67553711 41.80395508 C8.24168494 43.55660658 6.7627559 45.25257807 5.25 46.9375 C4.71922852 47.54086182 4.18845703 48.14422363 3.64160156 48.76586914 C2.58358573 49.96680373 1.52215743 51.16474217 0.45703125 52.359375 C-0.80361773 53.77887251 -2.04434375 55.21601669 -3.28125 56.65625 C-6.991786 60.95575997 -10.86485622 64.77981967 -15.1953125 68.453125 C-18.14693224 70.98308478 -20.82757964 73.76986983 -23.5078125 76.58203125 C-27.63269646 80.83162101 -32.04388609 84.49726037 -36.70703125 88.14453125 C-39.16770691 90.06938213 -39.16770691 90.06938213 -41.8125 92.8125 C-46.97508897 97.97508897 -46.97508897 97.97508897 -51.22265625 98.02734375 C-54.51892256 97.74713564 -57.71136524 97.31860862 -60.92749023 96.5234375 C-67.14888981 94.9947627 -73.17095635 94.57804043 -79.5625 94.375 C-80.57119141 94.33632813 -81.57988281 94.29765625 -82.61914062 94.2578125 C-85.0792564 94.16453797 -87.53938366 94.07874484 -90 94 C-88.66013424 87.54305899 -83.24156572 84.56556322 -78.21875 80.78125 C-75.96700383 79.03962979 -75.96700383 79.03962979 -73.99609375 76.99609375 C-71.96681761 74.96681761 -69.85622226 73.28378551 -67.5625 71.5625 C-64.10082433 68.90442761 -61.05223568 66.12668045 -58 63 C-51.91470111 57.31320741 -45.61797814 52.04876683 -39 47 C-35.62418453 44.3829183 -32.29627442 41.71660172 -29 39 C-28.04222656 38.21496094 -27.08445312 37.42992187 -26.09765625 36.62109375 C-16.55888595 28.43951761 -12.80312863 21.48010496 -11.5546875 8.98046875 C-10.94629717 5.71144185 -9.93738761 3.6843903 -8 1 C-4.98221063 -0.50889469 -3.37677363 -0.50026276 0 0 Z " fill="#BB2828" transform="translate(360,217)"/>
<path d="M0 0 C2.59866941 2.05736079 3.42911638 3.69072649 4.02734375 6.9140625 C4.17703613 7.67090332 4.32672852 8.42774414 4.48095703 9.20751953 C4.63161621 10.00528809 4.78227539 10.80305664 4.9375 11.625 C7.24979369 22.62090273 9.01150777 29.24016327 18.46484375 36.078125 C21.23692588 38.17961099 23.55546776 40.52864687 26 43 C27.62621954 44.37765915 29.27296671 45.73138632 30.9375 47.0625 C37.74201261 52.57397181 44.38797444 58.25965626 51 64 C51.52674316 64.45536133 52.05348633 64.91072266 52.59619141 65.37988281 C54.02826287 66.62159524 55.45191071 67.87300348 56.875 69.125 C57.67679687 69.82882812 58.47859375 70.53265625 59.3046875 71.2578125 C61 73 61 73 61 75 C61.721875 75.226875 62.44375 75.45375 63.1875 75.6875 C66.61551111 77.28723852 68.37789594 79.25870939 71 82 C73.3900312 84.02729459 75.78810325 86.04240153 78.20703125 88.03515625 C80 90 80 90 80 94 C79.39115967 94.01458252 78.78231934 94.02916504 78.1550293 94.04418945 C63.47984049 94.14051202 63.47984049 94.14051202 49.31640625 97.4765625 C45.91071842 98.24614457 43.38545332 97.80747136 40 97 C37.05078125 95.109375 37.05078125 95.109375 34.3125 92.75 C33.40113281 91.98171875 32.48976562 91.2134375 31.55078125 90.421875 C29 88 29 88 27.16796875 85.640625 C24.73612273 82.67859273 22.05878682 80.34312935 19.15429688 77.85644531 C10.09374547 70.04859934 1.37942782 61.71009523 -6.75 52.9375 C-7.21438477 52.43847168 -7.67876953 51.93944336 -8.15722656 51.42529297 C-15.18526684 43.69134578 -21.60731438 34.79885466 -22 24 C-20.50929836 14.75764981 -16.35619905 7.19959223 -9.05859375 1.25390625 C-5.89213192 -0.67481148 -3.58276378 -0.7025027 0 0 Z " fill="#F0B21A" transform="translate(160,217)"/>
<path d="M0 0 C-0.01160156 0.94206299 -0.02320313 1.88412598 -0.03515625 2.85473633 C-0.05954902 6.40279557 -0.04758322 9.94709257 -0.01220703 13.49487305 C-0.00417278 15.02025505 -0.00998743 16.54578323 -0.03076172 18.07104492 C-0.16800081 29.07545323 1.19977482 35.63307263 9 44 C10.39631907 45.62458264 11.7922204 47.24952452 13.1875 48.875 C16.04052419 52.00663983 18.9630794 55.04515834 22 58 C23.66666667 59.66666667 25.33333333 61.33333333 27 63 C27.54398438 63.52078125 28.08796875 64.0415625 28.6484375 64.578125 C30.13494622 66.01578132 31.57131617 67.50486576 33 69 C33 69.66 33 70.32 33 71 C33.5671875 71.19851562 34.134375 71.39703125 34.71875 71.6015625 C37.89895815 73.55107366 39.55621849 76.28104459 41.5 79.375 C41.89364746 79.99769775 42.28729492 80.62039551 42.69287109 81.26196289 C46.66695326 87.76508154 50.67655521 95.21209136 49.9375 103.0625 C48.50716091 107.54422915 48.50716091 107.54422915 46 109 C39.17465043 110.67836465 39.17465043 110.67836465 35.15234375 108.35546875 C31.76238089 105.82244817 28.55642167 103.1618337 25.375 100.375 C24.14520353 99.30781853 22.91472216 98.24142587 21.68359375 97.17578125 C21.06983887 96.6442041 20.45608398 96.11262695 19.82373047 95.56494141 C16.13846294 92.40261679 12.37654318 89.33222888 8.62109375 86.25390625 C5.93916184 83.94768462 3.47650799 81.52506697 1 79 C-0.10009892 77.90867892 -1.20176439 76.81893554 -2.3046875 75.73046875 C-15.58954438 62.56923484 -15.58954438 62.56923484 -20 57 C-20.55300781 56.32066406 -21.10601562 55.64132813 -21.67578125 54.94140625 C-29.63155076 44.28940937 -28.91597159 29.76488607 -28 17 C-27.20972842 11.83853875 -25.93088293 8.2500428 -22.8125 4.0625 C-16.64499562 -0.46033654 -7.34596702 -3.67298351 0 0 Z " fill="#BA2727" transform="translate(201,182)"/>
<path d="M0 0 C5.53799049 2.07433442 8.35177804 5.01605609 11 10.3125 C15.09581937 21.78079423 14.84888069 37.52298966 10.25 48.8125 C5.4997409 56.45846498 -1.46094884 62.70363557 -7.8762207 68.95483398 C-10.35795085 71.37447727 -12.67672421 73.71966564 -14.828125 76.4453125 C-17.03340515 79.1615722 -19.4414424 81.1491703 -22.1875 83.3125 C-25.95986287 86.2926142 -29.3802092 89.3852399 -32.75 92.8125 C-50.41076394 109.55894647 -50.41076394 109.55894647 -58.66015625 109.99609375 C-60.75 109.8125 -60.75 109.8125 -63.8125 108.4375 C-65.99404124 105.48186348 -66.63496157 103.38657058 -66.43359375 99.70703125 C-64.1382277 89.98779558 -58.21411212 80.3158018 -51.75 72.8125 C-51.24597656 72.20148438 -50.74195313 71.59046875 -50.22265625 70.9609375 C-47.23685146 67.3901277 -44.08560946 64.06258101 -40.75 60.8125 C-39.96625 60.02875 -39.1825 59.245 -38.375 58.4375 C-36.96418054 57.02668054 -35.55116235 55.61796412 -34.125 54.22265625 C-29.77138407 49.93706557 -25.70651738 45.46607131 -21.75 40.8125 C-20.96625 39.905 -20.1825 38.9975 -19.375 38.0625 C-16.34990681 33.87390942 -16.55715099 29.44412893 -16.43359375 24.421875 C-16.41281265 23.71726135 -16.39203156 23.01264771 -16.37062073 22.28668213 C-16.30546163 20.04538319 -16.24639752 17.80397136 -16.1875 15.5625 C-16.14428274 14.03905103 -16.10066743 12.51561329 -16.05664062 10.9921875 C-15.94981509 7.26574409 -15.84845361 3.53917506 -15.75 -0.1875 C-10.97937006 -2.57281497 -4.93820708 -1.46409155 0 0 Z " fill="#BA2A29" transform="translate(326.75,182.1875)"/>
<path d="M0 0 C6.32719263 2.92706575 11.79917398 7.00795033 16.5078125 12.16015625 C16.5078125 12.82015625 16.5078125 13.48015625 16.5078125 14.16015625 C17.466875 14.53140625 17.466875 14.53140625 18.4453125 14.91015625 C20.18332043 15.61954724 21.9117556 16.35797511 23.59765625 17.18359375 C29.43338059 19.99671215 33.75856363 21.4442817 40.17944336 19.24511719 C41.20432861 18.88192383 42.22921387 18.51873047 43.28515625 18.14453125 C50.87836667 15.76933346 57.92368949 15.70245549 65.8203125 15.91015625 C67.15817579 15.93029159 68.49606903 15.9485297 69.83398438 15.96484375 C73.05938679 16.01141996 76.283187 16.07680774 79.5078125 16.16015625 C77.96686175 26.64954499 69.73834863 33.94048974 61.5078125 40.16015625 C49.8054731 47.1457364 38.34885766 49.97717649 24.734375 47.6953125 C9.60195585 43.55715904 -8.22979657 32.91340659 -17.109375 19.765625 C-19.47154627 14.98426453 -20.00536913 11.40585257 -18.4921875 6.16015625 C-14.8505019 -1.64345575 -7.72533059 -2.60336376 0 0 Z " fill="#273F74" transform="translate(171.4921875,307.83984375)"/>
<path d="M0 0 C4.36045847 2.22136563 7.13277421 4.43567029 9 9 C9.74498376 14.68050115 9.08303171 18.16481561 5.796875 22.86328125 C-3.99786661 34.5105066 -20.63903685 46.43514193 -36 49 C-52.52239978 50.05757228 -64.35400848 46.68361925 -77.0625 35.8125 C-81.7767712 31.45526016 -86.01454216 26.72377513 -89 21 C-89 19.68 -89 18.36 -89 17 C-84.56272822 16.88243242 -80.12586472 16.81229284 -75.6875 16.75 C-74.44419922 16.71648437 -73.20089844 16.68296875 -71.91992188 16.6484375 C-64.71895545 16.5728368 -59.0042324 17.18613043 -52.37207031 20.07275391 C-47.01284651 22.16768309 -42.28321153 21.85474073 -36.953125 19.859375 C-29.65491059 16.40997018 -24.02159742 12.25402799 -18.5625 6.375 C-12.99755629 1.21724729 -7.55889704 -0.97534155 0 0 Z " fill="#243D73" transform="translate(350,307)"/>
<path d="M0 0 C3.91712265 0.66176645 6.7623936 1.83516278 10.1796875 3.90625 C11.91183689 4.94702646 13.70555749 5.88323513 15.5 6.8125 C18.94426671 8.77626899 21.46231753 11.282532 24.17578125 14.1484375 C26.06075576 16.06166645 28.05084828 17.73303761 30.125 19.4375 C37.10047218 25.48020555 40.64190253 32.79402527 41.5625 42 C41.47876011 45.60779378 40.33465444 47.15986261 37.8125 49.6875 C36.55170366 50.80311373 35.28121861 51.90790098 34 53 C33.0925 53.928125 32.185 54.85625 31.25 55.8125 C29 58 29 58 26 60 C22.67759676 59.6758631 21.39223697 59.39223697 19 57 C18.34989513 55.49822936 17.75233655 53.97337469 17.1875 52.4375 C14.08887 44.54282872 11.20761363 38.634215 4.42578125 33.40625 C2.28411288 31.29391956 2.44982418 28.89172684 2 26 C-0.81637564 24.2999844 -0.81637564 24.2999844 -4 23 C-4.680625 22.29875 -5.36125 21.5975 -6.0625 20.875 C-8.34984338 18.66144189 -9.88525126 18.34608319 -13 18 C-12.40674464 14.79088808 -11.42413843 12.98744159 -9.27734375 10.546875 C-8.73916016 9.928125 -8.20097656 9.309375 -7.64648438 8.671875 C-7.08251953 8.03765625 -6.51855469 7.4034375 -5.9375 6.75 C-5.08575195 5.77546875 -5.08575195 5.77546875 -4.21679688 4.78125 C-2.8174556 3.18200283 -1.40954759 1.59025881 0 0 Z " fill="#EFB21C" transform="translate(266,105)"/>
<path d="M0 0 C0.29918905 5.49472203 0.51548819 10.98460631 0.65917969 16.4855957 C0.71912086 18.35134521 0.80071623 20.21654064 0.90527344 22.08032227 C1.79683936 38.39510462 1.79683936 38.39510462 -2.52685547 43.56958008 C-5.41306505 46.42748175 -8.66060882 48.69448889 -12 51 C-13.92910247 52.63596728 -15.76961544 54.34127999 -17.625 56.0625 C-18.81996094 57.13177734 -18.81996094 57.13177734 -20.0390625 58.22265625 C-21.39086769 59.44789801 -22.70992352 60.70992352 -24 62 C-24.99 62 -25.98 62 -27 62 C-27 45.5 -27 29 -27 12 C-21.66666667 9.33333333 -16.33333333 6.66666667 -11 4 C-10.32839844 3.64679688 -9.65679687 3.29359375 -8.96484375 2.9296875 C-8.25457031 2.56101563 -7.54429687 2.19234375 -6.8125 1.8125 C-6.15894531 1.46832031 -5.50539063 1.12414062 -4.83203125 0.76953125 C-3 0 -3 0 0 0 Z " fill="#203972" transform="translate(289,186)"/>
<path d="M0 0 C0 3 0 3 -1.328125 4.47265625 C-2.27945313 5.25962891 -2.27945313 5.25962891 -3.25 6.0625 C-3.97316406 6.66964844 -4.69632812 7.27679688 -5.44140625 7.90234375 C-6.28574219 8.59457031 -7.13007813 9.28679687 -8 10 C-9.53758769 11.27173382 -11.07510434 12.54355696 -12.61035156 13.81811523 C-14.12556641 15.07367949 -15.64664896 16.32215236 -17.16796875 17.5703125 C-19.91992466 19.93130088 -22.45918568 22.41552908 -25 25 C-27.42315995 27.07699424 -29.00690717 27.98778269 -32.22265625 28.02734375 C-35.51892256 27.74713564 -38.71136524 27.31860862 -41.92749023 26.5234375 C-48.14888981 24.9947627 -54.17095635 24.57804043 -60.5625 24.375 C-61.57119141 24.33632813 -62.57988281 24.29765625 -63.61914062 24.2578125 C-66.0792564 24.16453797 -68.53938366 24.07874484 -71 24 C-69.66013424 17.54305899 -64.24156572 14.56556322 -59.21875 10.78125 C-56.95049057 9.02637267 -56.95049057 9.02637267 -54.90625 6.90625 C-49.79595275 1.79595275 -44.05652524 2.08317026 -37.1875 1.375 C-35.32013184 1.17716919 -35.32013184 1.17716919 -33.41503906 0.9753418 C-22.24900789 -0.12715056 -11.20707276 -0.30876629 0 0 Z " fill="#2979B4" transform="translate(341,287)"/>
<path d="M0 0 C3.20831391 -0.0292483 6.41659307 -0.04688189 9.625 -0.0625 C10.98044922 -0.07506836 10.98044922 -0.07506836 12.36328125 -0.08789062 C17.05934968 -0.10502956 21.36544003 0.20285569 26 1 C27.46304997 1.04459049 28.92690252 1.0658377 30.390625 1.0703125 C40.45289197 1.14031804 47.47062079 1.59716498 55 9 C55.86625 9.825 56.7325 10.65 57.625 11.5 C58.40875 12.325 59.1925 13.15 60 14 C62.12909245 15.76822932 64.26500811 17.52448893 66.42578125 19.25390625 C68 21 68 21 68 25 C67.39115967 25.01458252 66.78231934 25.02916504 66.1550293 25.04418945 C51.47984049 25.14051202 51.47984049 25.14051202 37.31640625 28.4765625 C33.91071842 29.24614457 31.38545332 28.80747136 28 28 C25.05078125 26.109375 25.05078125 26.109375 22.3125 23.75 C21.40113281 22.98171875 20.48976562 22.2134375 19.55078125 21.421875 C17.09509833 19.09029244 15.09576736 16.65178727 13 14 C11.71944049 12.79836166 10.40739047 11.62917536 9.0625 10.5 C5.89044599 7.77855553 2.82200356 5.0865664 0 2 C0 1.34 0 0.68 0 0 Z " fill="#297AB7" transform="translate(172,286)"/>
<path d="M0 0 C3.46339346 1.25326832 6.1284451 2.65369564 8.98828125 4.96875 C9.69404297 5.53980469 10.39980469 6.11085937 11.12695312 6.69921875 C11.84818359 7.29347656 12.56941406 7.88773438 13.3125 8.5 C14.42334961 9.39138672 14.42334961 9.39138672 15.55664062 10.30078125 C19.60989439 13.61062718 19.60989439 13.61062718 21 15 C21 15.66 21 16.32 21 17 C23.31 17.66 25.62 18.32 28 19 C28 32.2 28 45.4 28 59 C26.02 59.495 26.02 59.495 24 60 C22.140625 58.59375 22.140625 58.59375 20.25 56.5 C17.59269289 53.67046002 14.9378147 50.97628081 12 48.4375 C11.38608398 47.88650635 10.77216797 47.3355127 10.13964844 46.76782227 C8.09172736 44.96721371 8.09172736 44.96721371 5.87695312 43.81640625 C3.15741104 42.10813844 1.72757156 40.73809019 0 38 C-1.37538991 31.67282526 -0.74857775 24.98389651 -0.5 18.5625 C-0.45983706 16.76375078 -0.4233412 14.9649157 -0.390625 13.16601562 C-0.30280947 8.77521352 -0.16497127 4.38855301 0 0 Z " fill="#203A74" transform="translate(222,188)"/>
<path d="M0 0 C0.10054688 0.81597656 0.10054688 0.81597656 0.203125 1.6484375 C1.34052902 5.00489446 3.37286834 7.01578152 5.75 9.625 C6.61109375 10.58664062 7.4721875 11.54828125 8.359375 12.5390625 C11.93839868 15.87454315 14.45743074 16.94178984 19.3125 17.125 C20.199375 17.08375 21.08625 17.0425 22 17 C20.33333333 18.66666667 18.66666667 20.33333333 17 22 C16.24847656 22.75925781 15.49695313 23.51851563 14.72265625 24.30078125 C11.74004867 27.25771358 8.70136216 30.14130498 5.625 33 C5.08617187 33.50789063 4.54734375 34.01578125 3.9921875 34.5390625 C-7.02093393 44.7655324 -7.02093393 44.7655324 -14.91015625 45.18359375 C-17 45 -17 45 -20.0625 43.625 C-22.24404124 40.66936348 -22.88496157 38.57407058 -22.68359375 34.89453125 C-20.38731798 25.17144357 -14.46165352 15.50948923 -8 8 C-7.46117187 7.34257812 -6.92234375 6.68515625 -6.3671875 6.0078125 C-2.3492268 1.1746134 -2.3492268 1.1746134 0 0 Z " fill="#EFB21A" transform="translate(283,247)"/>
<path d="M0 0 C-0.37511719 0.43570312 -0.75023437 0.87140625 -1.13671875 1.3203125 C-1.64847656 1.91585938 -2.16023438 2.51140625 -2.6875 3.125 C-3.24050781 3.76695312 -3.79351562 4.40890625 -4.36328125 5.0703125 C-5.73367126 6.68599905 -7.05998668 8.33893054 -8.375 10 C-11.12392095 13.14162394 -14.05431567 15.78798501 -17.23046875 18.484375 C-19.08344907 20.03207632 -19.08344907 20.03207632 -21 22 C-21 21.34 -21 20.68 -21 20 C-25.56751125 20.26571939 -30.13497213 20.53228503 -34.70239258 20.79956055 C-36.24892921 20.88994983 -37.79547827 20.98012688 -39.34204102 21.07006836 C-49.5649287 21.66476998 -59.78368112 22.30084508 -70 23 C-65.92301895 17.8501292 -61.58385705 13.88422712 -56.3671875 9.89453125 C-54.0742316 8.05940978 -52.03475002 6.11445221 -50 4 C-48 5 -48 5 -47 6 C-45.08279127 5.90300232 -45.08279127 5.90300232 -42.79296875 5.546875 C-41.90536865 5.42352783 -41.01776855 5.30018066 -40.10327148 5.1730957 C-38.6599646 4.96366333 -38.6599646 4.96366333 -37.1875 4.75 C-36.206604 4.61231201 -35.22570801 4.47462402 -34.21508789 4.33276367 C-29.22741743 3.62732741 -24.24509128 2.889994 -19.265625 2.12890625 C-18.3681958 1.99194336 -17.4707666 1.85498047 -16.54614258 1.71386719 C-14.8422175 1.45170033 -13.13889234 1.18559582 -11.4362793 0.91503906 C-7.58400631 0.31701687 -3.91359426 -0.16536314 0 0 Z " fill="#EFB21D" transform="translate(362,267)"/>
<path d="M0 0 C-0.01160156 0.94206299 -0.02320313 1.88412598 -0.03515625 2.85473633 C-0.05954902 6.40279557 -0.04758322 9.94709257 -0.01220703 13.49487305 C-0.00417278 15.02025505 -0.00998743 16.54578323 -0.03076172 18.07104492 C-0.16800151 29.07550946 1.18531734 35.63396894 9 44 C9.8353125 45.00417969 10.670625 46.00835937 11.53125 47.04296875 C12.50578125 48.10451172 12.50578125 48.10451172 13.5 49.1875 C14.1703125 49.92355469 14.840625 50.65960938 15.53125 51.41796875 C16.0159375 51.94003906 16.500625 52.46210938 17 53 C16.01 53.495 16.01 53.495 15 54 C10.37649432 51.62897144 7.63955889 49.7167107 5.8125 44.8125 C5.544375 43.884375 5.27625 42.95625 5 42 C4.01 42 3.02 42 2 42 C1.67 41.01 1.34 40.02 1 39 C0.01 38.34 -0.98 37.68 -2 37 C-2.26686213 34.30459685 -2.34818073 31.84152536 -2.29296875 29.1484375 C-2.28872391 28.37440582 -2.28447906 27.60037415 -2.28010559 26.80288696 C-2.26328998 24.32657323 -2.22563395 21.85106842 -2.1875 19.375 C-2.17245682 17.69792841 -2.15876778 16.02084408 -2.14648438 14.34375 C-2.11337721 10.22885419 -2.06157637 6.11456431 -2 2 C-3.21236328 2.2165625 -3.21236328 2.2165625 -4.44921875 2.4375 C-5.51785156 2.623125 -6.58648437 2.80875 -7.6875 3 C-8.74324219 3.185625 -9.79898438 3.37125 -10.88671875 3.5625 C-13.64904062 3.95068074 -16.21742043 4.08259976 -19 4 C-19.268125 4.721875 -19.53625 5.44375 -19.8125 6.1875 C-21 9 -21 9 -22.55859375 11.03125 C-24.69167706 15.42459233 -24.35752035 19.4976045 -24.25 24.3125 C-24.24484375 25.22451172 -24.2396875 26.13652344 -24.234375 27.07617188 C-24.17257393 32.46445231 -23.76099187 37.66715778 -23 43 C-22.896875 44.051875 -22.79375 45.10375 -22.6875 46.1875 C-21.85603295 49.58895609 -20.22467477 51.34474302 -18 54 C-18 54.99 -18 55.98 -18 57 C-16.02 57.33 -14.04 57.66 -12 58 C-11.67 60.64 -11.34 63.28 -11 66 C-12.69596713 64.35703184 -14.35433521 62.69290875 -16 61 C-16.66257813 60.32195312 -17.32515625 59.64390625 -18.0078125 58.9453125 C-28.32546984 47.94234951 -28.41089576 36.0564646 -28.21484375 21.59375 C-27.99438324 14.84574143 -26.87879291 9.52295048 -22.8125 4.0625 C-16.64499562 -0.46033654 -7.34596702 -3.67298351 0 0 Z " fill="#B44646" transform="translate(201,182)"/>
<path d="M0 0 C12.52882756 8.91474269 24.47266463 18.15459752 27.359375 33.96875 C27.68614176 37.23641764 27.59528925 39.19234633 25.609375 41.88671875 C23.80976196 43.69024399 21.93846202 45.34767271 20 47 C19.0925 47.928125 18.185 48.85625 17.25 49.8125 C15 52 15 52 12 54 C8.67759676 53.6758631 7.39223697 53.39223697 5 51 C4.34989513 49.49822936 3.75233655 47.97337469 3.1875 46.4375 C0.11077212 38.59863079 -2.85687776 32.30388914 -9.64453125 27.09375 C-10.09183594 26.7328125 -10.53914063 26.371875 -11 26 C-11 25.67 -11 25.34 -11 25 C-8.69 25.33 -6.38 25.66 -4 26 C-3.731875 26.969375 -3.46375 27.93875 -3.1875 28.9375 C-2.795625 29.948125 -2.40375 30.95875 -2 32 C-1.01 32.33 -0.02 32.66 1 33 C2.28125 35.546875 2.28125 35.546875 3.5 38.75 C5.03716187 42.75056232 6.5690042 46.45292698 9 50 C11.08533633 50.87822312 11.08533633 50.87822312 13 51 C13.185625 50.278125 13.37125 49.55625 13.5625 48.8125 C15.30680002 45.3997391 17.21942288 44.24446317 20.44140625 42.30859375 C22.43599205 40.63394151 22.63340253 39.54713828 23 37 C23.36191557 31.39030861 23.19354269 27.84945371 20 23 C19.01 22.67 18.02 22.34 17 22 C16.26171875 20.22265625 16.26171875 20.22265625 15.6875 18.0625 C15.01085812 15.87229442 15.01085812 15.87229442 14 14 C11.07085835 12.82917122 11.07085835 12.82917122 8 12 C6.60287726 10.04402816 5.26220093 8.04563599 4 6 C3.01 5.67 2.02 5.34 1 5 C0.67 3.35 0.34 1.7 0 0 Z " fill="#E0B562" transform="translate(280,111)"/>
<path d="M0 0 C2.59866941 2.05736079 3.42911638 3.69072649 4.02734375 6.9140625 C4.17703613 7.67090332 4.32672852 8.42774414 4.48095703 9.20751953 C4.63161621 10.00528809 4.78227539 10.80305664 4.9375 11.625 C7.26066018 22.67257735 9.01350243 29.26573039 18.5625 36.078125 C21.1710029 38.13482921 23.02150787 40.34369113 25 43 C20.14562001 42.54842977 17.50825987 41.40802387 14 38 C13.67 37.01 13.34 36.02 13 35 C12.175 34.21625 11.35 33.4325 10.5 32.625 C7.90750895 29.9028844 7.31377499 28.66070817 7 25 C6.34 25 5.68 25 5 25 C1.95095686 14.56805366 1.95095686 14.56805366 1.375 9.375 C1.3741663 6.16593462 1.3741663 6.16593462 0 5 C-1.51928038 4.92820036 -3.04167482 4.91607993 -4.5625 4.9375 C-5.38878906 4.94652344 -6.21507812 4.95554688 -7.06640625 4.96484375 C-8.02353516 4.98224609 -8.02353516 4.98224609 -9 5 C-9.226875 5.70125 -9.45375 6.4025 -9.6875 7.125 C-11.33841288 10.74128535 -13.2908835 13.08769976 -16 16 C-16.66 16 -17.32 16 -18 16 C-18.57344938 27.0112295 -18.57344938 27.0112295 -14.77734375 37.1328125 C-13.80242965 39.47456597 -14.1705853 40.65259992 -15 43 C-23.46522005 27.23449845 -23.46522005 27.23449845 -20.78125 18.10546875 C-17.446858 9.11928231 -11.05668377 -2.16797721 0 0 Z " fill="#DEB754" transform="translate(160,217)"/>
<path d="M0 0 C0.33 0.99 0.66 1.98 1 3 C0.03126968 4.35622245 -0.97676564 5.68441297 -2 7 C-3.03842565 9.31648799 -4.0421975 11.64903024 -5 14 C-5.33 14.66 -5.66 15.32 -6 16 C-6.66 16 -7.32 16 -8 16 C-8 16.99 -8 17.98 -8 19 C-8.66 19 -9.32 19 -10 19 C-10.66 23.95 -11.32 28.9 -12 34 C-7.80323161 34 -4.92328959 33.89675191 -1 33 C-0.67 33 -0.34 33 0 33 C0.4125 32.360625 0.825 31.72125 1.25 31.0625 C3 29 3 29 5.5625 28.5 C6.7690625 28.2525 6.7690625 28.2525 8 28 C9.36020151 26.03241727 9.36020151 26.03241727 10 24 C10.99 24 11.98 24 13 24 C13.66 22.02 14.32 20.04 15 18 C15.99 18 16.98 18 18 18 C18 17.01 18 16.02 18 15 C19.98 14.34 21.96 13.68 24 13 C24 12.34 24 11.68 24 11 C25.65 10.67 27.3 10.34 29 10 C27.33333333 11.66666667 25.66666667 13.33333333 24 15 C23.24847656 15.75925781 22.49695313 16.51851563 21.72265625 17.30078125 C18.74004867 20.25771358 15.70136216 23.14130498 12.625 26 C12.08617187 26.50789063 11.54734375 27.01578125 10.9921875 27.5390625 C-0.02093393 37.7655324 -0.02093393 37.7655324 -7.91015625 38.18359375 C-10 38 -10 38 -13.0625 36.625 C-15.24404124 33.66936348 -15.88496157 31.57407058 -15.68359375 27.89453125 C-13.35739708 18.0447499 -7.1273372 7.1273372 0 0 Z " fill="#DFB962" transform="translate(276,254)"/>
<path d="M0 0 C1.67639472 1.19693903 3.27810328 2.49713955 4.86328125 3.8125 C2.29762019 5.09533053 1.51490276 4.57838967 -1.19921875 3.8125 C-5.96198992 2.69682662 -10.4163017 2.27194548 -15.13671875 3.8125 C-16.98097864 6.08066301 -16.98097864 6.08066301 -18.13671875 8.8125 C-22.56915118 12.8125 -22.56915118 12.8125 -25.13671875 12.8125 C-25.13671875 13.4725 -25.13671875 14.1325 -25.13671875 14.8125 C-26.12671875 14.8125 -27.11671875 14.8125 -28.13671875 14.8125 C-28.22953125 15.8953125 -28.22953125 15.8953125 -28.32421875 17 C-29.38955342 20.68769692 -31.40631964 22.14559854 -34.13671875 24.8125 C-35.61927785 27.08860836 -36.86352084 29.40757061 -38.13671875 31.8125 C-39.12671875 31.8125 -40.11671875 31.8125 -41.13671875 31.8125 C-41.13671875 32.4725 -41.13671875 33.1325 -41.13671875 33.8125 C-42.32421875 35.125 -42.32421875 35.125 -44.13671875 36.8125 C-45.02359375 37.699375 -45.91046875 38.58625 -46.82421875 39.5 C-47.58734375 40.263125 -48.35046875 41.02625 -49.13671875 41.8125 C-49.13671875 38.06362482 -48.04707403 36.89314341 -45.88671875 33.875 C-45.2834375 33.02035156 -44.68015625 32.16570312 -44.05859375 31.28515625 C-42.22546083 28.92667427 -40.25630919 26.91019385 -38.13671875 24.8125 C-37.47671875 23.8225 -36.81671875 22.8325 -36.13671875 21.8125 C-35.47671875 21.8125 -34.81671875 21.8125 -34.13671875 21.8125 C-33.86988281 21.22726563 -33.60304687 20.64203125 -33.328125 20.0390625 C-31.69239599 16.98212632 -29.51398254 14.67592241 -27.203125 12.109375 C-25.73061977 10.4726395 -24.28255047 8.81378016 -22.8515625 7.140625 C-21.69333984 5.80257812 -21.69333984 5.80257812 -20.51171875 4.4375 C-19.79757813 3.60476562 -19.0834375 2.77203125 -18.34765625 1.9140625 C-13.11218474 -3.06241042 -6.26422513 -3.48139751 0 0 Z " fill="#D6A042" transform="translate(258.13671875,92.1875)"/>
<path d="M0 0 C5.75 1.75 5.75 1.75 8 4 C8 4.99 8 5.98 8 7 C8.8156543 6.98952637 9.63130859 6.97905273 10.47167969 6.96826172 C13.55809443 6.93375468 16.64440941 6.90889765 19.73095703 6.89013672 C21.69961157 6.87537776 23.6681769 6.84993839 25.63671875 6.82421875 C33.64030889 6.78359139 41.15904566 7.37425748 49 9 C48.505 7.02 48.505 7.02 48 5 C46.68 5 45.36 5 44 5 C44 4.34 44 3.68 44 3 C44.66 3 45.32 3 46 3 C46.33 2.34 46.66 1.68 47 1 C47.50789063 1.51949219 48.01578125 2.03898437 48.5390625 2.57421875 C52.53490094 6.6224371 56.55813614 10.44650891 61 14 C60.01 14 59.02 14 58 14 C57.505 13.505 57.505 13.505 57 13 C55.65682471 12.85561656 54.30685134 12.77308383 52.95703125 12.71875 C52.13009766 12.68136719 51.30316406 12.64398438 50.45117188 12.60546875 C49.58041016 12.57066406 48.70964844 12.53585937 47.8125 12.5 C38.67631023 12.12652971 38.67631023 12.12652971 35.03515625 11.4453125 C32.25328666 11.03716175 29.89779923 11.02354225 27.1015625 11.1484375 C10.55735808 11.88666973 10.55735808 11.88666973 5.875 7.75 C4.3046875 5.921875 4.3046875 5.921875 3 4 C2.44570312 3.26265625 1.89140625 2.5253125 1.3203125 1.765625 C0.88460937 1.18296875 0.44890625 0.6003125 0 0 Z " fill="#E3B535" transform="translate(160,276)"/>
<path d="M0 0 C4.73084414 1.43358913 8.84024187 4.19372076 12 8 C12 9.32 12 10.64 12 12 C11.39115967 12.01458252 10.78231934 12.02916504 10.1550293 12.04418945 C-4.5654115 12.31436133 -4.5654115 12.31436133 -18.875 15.41796875 C-22.20647227 16.33044921 -24.7347542 15.99956504 -28 15 C-30.4375 12.9375 -30.4375 12.9375 -32 11 C-30.68 11 -29.36 11 -28 11 C-28 11.66 -28 12.32 -28 13 C-16.21082022 12.6147734 -16.21082022 12.6147734 -6 8 C-4.31816052 7.76712992 -2.6287584 7.58735834 -0.9375 7.4375 C0.44115234 7.31181641 0.44115234 7.31181641 1.84765625 7.18359375 C2.55792969 7.12300781 3.26820313 7.06242187 4 7 C3.34 6.67 2.68 6.34 2 6 C2 4.68 2 3.36 2 2 C1.34 2 0.68 2 0 2 C0 1.34 0 0.68 0 0 Z " fill="#2F6E9D" transform="translate(228,299)"/>
<path d="M0 0 C0 3 0 3 -1.64453125 4.75390625 C-2.35996094 5.35074219 -3.07539063 5.94757813 -3.8125 6.5625 C-4.52019531 7.16191406 -5.22789062 7.76132812 -5.95703125 8.37890625 C-8 10 -8 10 -11 12 C-11 10.68 -11 9.36 -11 8 C-10.34 8 -9.68 8 -9 8 C-9 7.34 -9 6.68 -9 6 C-7.70766393 4.62689293 -6.37562854 3.28965176 -5 2 C-5.88328979 2.21438721 -5.88328979 2.21438721 -6.78442383 2.43310547 C-15.76781666 4.35733796 -24.555337 4.22637284 -33.6875 4.125 C-35.27538495 4.11494496 -36.8632761 4.1058236 -38.45117188 4.09765625 C-42.30093725 4.07585443 -46.15039827 4.04146559 -50 4 C-50 3.67 -50 3.34 -50 3 C-33.25988002 0.9245048 -16.8723512 -0.46485049 0 0 Z " fill="#33749C" transform="translate(341,287)"/>
<path d="M0 0 C0 13.2 0 26.4 0 40 C-1.98 40.495 -1.98 40.495 -4 41 C-6.75 38.75 -6.75 38.75 -9 36 C-9 35.01 -9 34.02 -9 33 C-7.02 33.33 -5.04 33.66 -3 34 C-3 23.11 -3 12.22 -3 1 C-1 0 -1 0 0 0 Z " fill="#4C5678" transform="translate(250,207)"/>
<path d="M0 0 C0.33 0 0.66 0 1 0 C1 2.64 1 5.28 1 8 C0.01 8.33 -0.98 8.66 -2 9 C-2 12.96 -2 16.92 -2 21 C-0.35 21.33 1.3 21.66 3 22 C3.33 22.99 3.66 23.98 4 25 C4.66 25.33 5.32 25.66 6 26 C6 26.66 6 27.32 6 28 C9.96 27.505 9.96 27.505 14 27 C14 25.35 14 23.7 14 22 C15.32 22 16.64 22 18 22 C18 21.01 18 20.02 18 19 C18.66 19 19.32 19 20 19 C20 17.68 20 16.36 20 15 C20.99 15 21.98 15 23 15 C23.33 14.01 23.66 13.02 24 12 C24.66 12 25.32 12 26 12 C26 11.01 26 10.02 26 9 C26.99 9 27.98 9 29 9 C25.22007584 17.18676258 18.34484267 24.65515733 12 31 C7.96939958 31.08225715 5.96983819 30.78273666 2.79296875 28.21875 C-4.13735464 21.32588782 -4.13735464 21.32588782 -4.3125 15.5 C-4.2872612 9.72872735 -2.45612206 5.15347039 0 0 Z " fill="#DCB977" transform="translate(207,134)"/>
<path d="M0 0 C0.33 0 0.66 0 1 0 C0.98839844 0.91177002 0.97679687 1.82354004 0.96484375 2.76293945 C0.94044048 6.19922482 0.95242849 9.6316288 0.98779297 13.06762695 C0.99582385 14.54450609 0.99002138 16.02153628 0.96923828 17.49829102 C0.83192016 28.1549002 2.51753611 34.92487461 10 43 C10.8353125 44.00417969 11.670625 45.00835937 12.53125 46.04296875 C13.1809375 46.75066406 13.830625 47.45835937 14.5 48.1875 C15.1703125 48.92355469 15.840625 49.65960938 16.53125 50.41796875 C17.0159375 50.94003906 17.500625 51.46210938 18 52 C17.01 52.495 17.01 52.495 16 53 C11.37649432 50.62897144 8.63955889 48.7167107 6.8125 43.8125 C6.544375 42.884375 6.27625 41.95625 6 41 C5.01 41 4.02 41 3 41 C2.505 39.515 2.505 39.515 2 38 C1.01 37.34 0.02 36.68 -1 36 C-1.27961076 33.39847088 -1.37228329 31.03801278 -1.328125 28.4375 C-1.32625183 27.69040771 -1.32437866 26.94331543 -1.32244873 26.17358398 C-1.31572288 24.59321636 -1.30179772 23.01286554 -1.28125 21.43261719 C-1.25012344 19.00960879 -1.24028281 16.58725091 -1.234375 14.1640625 C-1.22520387 12.63020038 -1.21482774 11.09634489 -1.203125 9.5625 C-1.19887512 8.83538818 -1.19462524 8.10827637 -1.19024658 7.35913086 C-1.11720696 2.23441393 -1.11720696 2.23441393 0 0 Z " fill="#A03637" transform="translate(200,183)"/>
<path d="M0 0 C2.8125 2.5 2.8125 2.5 5 5 C5.7425 5.350625 6.485 5.70125 7.25 6.0625 C9 7 9 7 9.75 9.125 C9.8325 9.74375 9.915 10.3625 10 11 C6.2812584 11 5.7680642 10.17115761 3.125 7.6875 C-1.06664326 3.79918249 -1.06664326 3.79918249 -6 1 C-10.15451339 2.30494331 -12.39850735 5.58765928 -15 8.875 C-17.84830177 12.42243039 -20.70941246 15.84652028 -24 19 C-24 17.35 -24 15.7 -24 14 C-23.01 14 -22.02 14 -21 14 C-20.9071875 12.6696875 -20.9071875 12.6696875 -20.8125 11.3125 C-19.81065479 7.22805414 -18.19904189 5.652864 -15 3 C-14.34 3 -13.68 3 -13 3 C-12.896875 2.360625 -12.79375 1.72125 -12.6875 1.0625 C-12.460625 0.381875 -12.23375 -0.29875 -12 -1 C-7.68165103 -2.43944966 -4.22912964 -1.53650918 0 0 Z " fill="#DAAB57" transform="translate(260,124)"/>
<path d="M0 0 C0.33 0.66 0.66 1.32 1 2 C0.34 2 -0.32 2 -1 2 C-1 3.32 -1 4.64 -1 6 C-3.08203125 7.921875 -3.08203125 7.921875 -5.8125 9.75 C-7.15248047 10.67039062 -7.15248047 10.67039062 -8.51953125 11.609375 C-11 13 -11 13 -14 13 C-13.67 14.65 -13.34 16.3 -13 18 C-7.39 18 -1.78 18 4 18 C4 18.66 4 19.32 4 20 C4.66 20.33 5.32 20.66 6 21 C-6.87 20.505 -6.87 20.505 -20 20 C-18.36858604 13.47434414 -13.39667305 10.6824249 -8.21875 6.78125 C-5.93900309 5.01715033 -5.93900309 5.01715033 -3.84375 2.84375 C-2 1 -2 1 0 0 Z " fill="#618CAA" transform="translate(290,291)"/>
<path d="M0 0 C4.16871146 1.72498405 6.16630337 4.06843126 7.94921875 8.19921875 C11.53837043 20.29598924 11.69719348 35.16938208 7 47 C4.890625 49.35546875 4.890625 49.35546875 3 51 C4.875 44.125 4.875 44.125 6 43 C6.10005826 40.87819862 6.13081087 38.75306461 6.1328125 36.62890625 C6.13410156 35.33275391 6.13539063 34.03660156 6.13671875 32.70117188 C6.13462402 32.0223999 6.1325293 31.34362793 6.13037109 30.64428711 C6.1250313 28.57463211 6.13031193 26.505195 6.13671875 24.43554688 C6.13478516 22.48938477 6.13478516 22.48938477 6.1328125 20.50390625 C6.13112061 18.70675171 6.13112061 18.70675171 6.12939453 16.87329102 C6.1976135 14.05645837 6.1976135 14.05645837 5 12 C4.960008 10.00039988 4.95653201 7.99952758 5 6 C4.01 5.67 3.02 5.34 2 5 C0.8125 2.4375 0.8125 2.4375 0 0 Z " fill="#AD5557" transform="translate(330,184)"/>
<path d="M0 0 C0.66 1.32 1.32 2.64 2 4 C1.5059668 4.48879639 1.01193359 4.97759277 0.50292969 5.48120117 C-1.7507151 7.71395929 -4.00038217 9.95068487 -6.25 12.1875 C-7.41595703 13.34088867 -7.41595703 13.34088867 -8.60546875 14.51757812 C-12.30586209 18.20215782 -15.81146714 21.85333658 -19 26 C-22.51724138 29 -22.51724138 29 -25 29 C-25.33 28.01 -25.66 27.02 -26 26 C-24.68 26 -23.36 26 -22 26 C-21.34 24.35 -20.68 22.7 -20 21 C-19.34 21 -18.68 21 -18 21 C-17.87625 20.21625 -17.7525 19.4325 -17.625 18.625 C-17 16 -17 16 -15 14 C-14.01 14 -13.02 14 -12 14 C-11.67 13.01 -11.34 12.02 -11 11 C-10.01 11 -9.02 11 -8 11 C-8 10.01 -8 9.02 -8 8 C-7.34 8 -6.68 8 -6 8 C-5.67 7.01 -5.34 6.02 -5 5 C-3.35 4.67 -1.7 4.34 0 4 C0 2.68 0 1.36 0 0 Z " fill="#AE4946" transform="translate(329,235)"/>
<path d="M0 0 C3.20831391 -0.0292483 6.41659307 -0.04688189 9.625 -0.0625 C10.98044922 -0.07506836 10.98044922 -0.07506836 12.36328125 -0.08789062 C17.05934968 -0.10502956 21.36544003 0.20285569 26 1 C27.46304997 1.04459049 28.92690252 1.0658377 30.390625 1.0703125 C40.40739675 1.14508746 47.47270318 1.58880544 55 9 C54.67 9.66 54.34 10.32 54 11 C52.68 10.34 51.36 9.68 50 9 C50 8.34 50 7.68 50 7 C45.13170864 5.52847616 40.06394989 5.57217425 35.01953125 5.28125 C32 5 32 5 31 4 C28.16292912 3.7889782 25.34102354 3.62392187 22.5 3.5 C14.13513514 3.13513514 14.13513514 3.13513514 13 2 C10.81707226 1.76518307 8.62796826 1.58636677 6.4375 1.4375 C5.23996094 1.35371094 4.04242188 1.26992188 2.80859375 1.18359375 C1.88175781 1.12300781 0.95492187 1.06242187 0 1 C0 0.67 0 0.34 0 0 Z " fill="#4D7C8E" transform="translate(172,286)"/>
<path d="M0 0 C0.33 0 0.66 0 1 0 C1.65589802 8.04646325 2.10382453 16.05097049 2.125 24.125 C2.12951172 24.83454834 2.13402344 25.54409668 2.13867188 26.27514648 C2.12807092 29.97532226 1.88185257 33.40260143 1 37 C3.475 36.505 3.475 36.505 6 36 C6.33 37.98 6.66 39.96 7 42 C8.32 42 9.64 42 11 42 C12.484375 43.4609375 12.484375 43.4609375 13.75 45.375 C14.17796875 46.00148437 14.6059375 46.62796875 15.046875 47.2734375 C16 49 16 49 16 51 C12.63361113 49.54974765 10.51960775 47.70513547 8 45.0625 C5.23708958 42.11195157 5.23708958 42.11195157 1.89941406 39.91455078 C-0.61494405 37.38015537 -0.45456138 35.32867486 -0.45318604 31.8664093 C-0.42221832 30.64282967 -0.42221832 30.64282967 -0.390625 29.39453125 C-0.38496521 28.55532639 -0.37930542 27.71612152 -0.37347412 26.85148621 C-0.35108406 24.17124367 -0.30088453 21.49233837 -0.25 18.8125 C-0.22993832 16.99546202 -0.21168697 15.17840308 -0.1953125 13.36132812 C-0.15121086 8.90703688 -0.08216659 4.45374515 0 0 Z " fill="#404B6C" transform="translate(222,188)"/>
<path d="M0 0 C0.66 0.33 1.32 0.66 2 1 C1.25 3.4375 1.25 3.4375 0 6 C-1.33076989 6.34342449 -2.66431979 6.67619874 -4 7 C-5.0064275 8.66279327 -6.00585407 10.32983484 -7 12 C-9.475 13.485 -9.475 13.485 -12 15 C-5.73 15.33 0.54 15.66 7 16 C7 16.33 7 16.66 7 17 C3.62545836 17.33808357 0.25030319 17.66961318 -3.125 18 C-4.07632812 18.09539062 -5.02765625 18.19078125 -6.0078125 18.2890625 C-10.69100382 18.74437277 -15.2876326 19.12693246 -20 19 C-15.92301895 13.8501292 -11.58385705 9.88422712 -6.3671875 5.89453125 C-4.0742316 4.05940978 -2.03475002 2.11445221 0 0 Z " fill="#D4B653" transform="translate(312,271)"/>
<path d="M0 0 C3.48363636 2.43281369 7.07569145 5.1513829 9 9 C6.525 8.505 6.525 8.505 4 8 C4 7.34 4 6.68 4 6 C0.7 5.34 -2.6 4.68 -6 4 C-6.33 5.32 -6.66 6.64 -7 8 C-7.66 8.66 -8.32 9.32 -9 10 C-9.46162427 12.43252661 -9.46162427 12.43252661 -9.625 15.125 C-9.69976562 16.03507812 -9.77453125 16.94515625 -9.8515625 17.8828125 C-9.90054687 18.58148438 -9.94953125 19.28015625 -10 20 C-10.66 20 -11.32 20 -12 20 C-12.33 21.32 -12.66 22.64 -13 24 C-14.28682545 20.13952366 -13.27651028 18.82953085 -12 15 C-11.82599397 13.48213199 -11.68161558 11.96065884 -11.5625 10.4375 C-11.20197116 6.61975714 -10.41146713 4.08667792 -8 1 C-4.98221063 -0.50889469 -3.37677363 -0.50026276 0 0 Z " fill="#BC5F5E" transform="translate(360,217)"/>
<path d="M0 0 C0 0.33 0 0.66 0 1 C-4.31818451 1.70059041 -8.63745066 2.39398711 -12.95776367 3.08129883 C-14.42128133 3.31509629 -15.88450962 3.55071384 -17.34741211 3.78833008 C-26.5554212 5.28245985 -35.67450897 6.46737469 -45 7 C-41.26855469 3.04003906 -41.26855469 3.04003906 -38.8515625 2.6796875 C-38.11679687 2.74414062 -37.38203125 2.80859375 -36.625 2.875 C-32.57495032 3.06597795 -29.85270115 2.33665142 -26 1 C-17.44818663 -0.4994509 -8.64716188 -0.0965564 0 0 Z " fill="#BD3F0F" transform="translate(357,267)"/>
<path d="M0 0 C4.29 0 8.58 0 13 0 C14.08 5.4 14.08 5.4 13 9 C13 9.99 13 10.98 13 12 C7.26764271 10.08921424 3.72161639 4.57227156 0 0 Z " fill="#4086BC" transform="translate(172,287)"/>
<path d="M0 0 C0.99 0.33 1.98 0.66 3 1 C-2.55349288 7.21705361 -8.03024566 13.33712839 -14.44140625 18.6953125 C-16.12193069 20.06304399 -16.12193069 20.06304399 -18 22 C-18 21.34 -18 20.68 -18 20 C-24.27 20 -30.54 20 -37 20 C-37 19.67 -37 19.34 -37 19 C-30.4 19 -23.8 19 -17 19 C-16.34 17.68 -15.68 16.36 -15 15 C-14.34 15 -13.68 15 -13 15 C-12.67 13.35 -12.34 11.7 -12 10 C-11.01 10 -10.02 10 -9 10 C-9 9.34 -9 8.68 -9 8 C-7.68 8 -6.36 8 -5 8 C-4.9175 7.236875 -4.835 6.47375 -4.75 5.6875 C-4 3 -4 3 -2.125 1.125 C-1.073125 0.568125 -1.073125 0.568125 0 0 Z " fill="#D8B961" transform="translate(359,267)"/>
<path d="M0 0 C-4.06727245 2.91832543 -6.84915617 3.33790436 -11.8125 3.1875 C-13.55466797 3.14689453 -13.55466797 3.14689453 -15.33203125 3.10546875 C-16.21246094 3.07066406 -17.09289062 3.03585937 -18 3 C-18 3.66 -18 4.32 -18 5 C-27.24 5.66 -36.48 6.32 -46 7 C-43.66466491 4.66466491 -42.88373705 4.64484052 -39.6953125 4.25390625 C-38.81069336 4.14014648 -37.92607422 4.02638672 -37.01464844 3.90917969 C-36.06106445 3.79477539 -35.10748047 3.68037109 -34.125 3.5625 C-32.13262424 3.31007528 -30.14044021 3.05613323 -28.1484375 2.80078125 C-26.62234863 2.60669678 -26.62234863 2.60669678 -25.06542969 2.40869141 C-19.41863152 1.65584495 -13.79352966 0.75014434 -8.17236328 -0.17358398 C-2.21841033 -1.10920516 -2.21841033 -1.10920516 0 0 Z " fill="#F19A2F" transform="translate(359,268)"/>
<path d="M0 0 C0.66 0.66 1.32 1.32 2 2 C0 4 0 4 -3 4.0625 C-3.91845703 4.04123047 -3.91845703 4.04123047 -4.85546875 4.01953125 C-7.35447796 3.9967716 -9.81840169 4.08757681 -12.3125 4.25 C-13.15425781 4.29640625 -13.99601563 4.3428125 -14.86328125 4.390625 C-17.17030826 4.78927073 -17.17030826 4.78927073 -18.19921875 6.9375 C-18.59560547 7.9584375 -18.59560547 7.9584375 -19 9 C-20.5 10.75 -20.5 10.75 -22 12 C-22.66 12 -23.32 12 -24 12 C-22.46791352 7.40374057 -20.65841343 4.43997394 -16.3125 2.0859375 C-11.05688894 -0.18160437 -5.679552 -0.81287268 0 0 Z " fill="#BB5F5B" transform="translate(199,181)"/>
<path d="M0 0 C0 0.99 0 1.98 0 3 C-1.32 3 -2.64 3 -4 3 C-4 2.34 -4 1.68 -4 1 C-4.86052979 1.09087891 -5.72105957 1.18175781 -6.60766602 1.27539062 C-9.87808145 1.61699411 -13.14907408 1.9515479 -16.4206543 2.28173828 C-17.82197459 2.42453782 -19.22303257 2.5699415 -20.6237793 2.71826172 C-30.46024023 3.75739917 -40.10530561 4.1930149 -50 4 C-50 3.67 -50 3.34 -50 3 C-33.25988002 0.9245048 -16.8723512 -0.46485049 0 0 Z " fill="#627F7B" transform="translate(341,287)"/>
<path d="M0 0 C5.527897 1.44206009 5.527897 1.44206009 7.375 3.625 C8.56310503 8.13979912 8.93109754 11.95874771 6.984375 16.2265625 C4.90337484 19.67400253 3.40001032 21.73332645 0 24 C0 22.68 0 21.36 0 20 C0.66 20 1.32 20 2 20 C2.12375 19.484375 2.2475 18.96875 2.375 18.4375 C3.18641628 15.27297649 4.0945913 12.13875015 5 9 C4.34 8.67 3.68 8.34 3 8 C3 6.35 3 4.7 3 3 C2.01 2.67 1.02 2.34 0 2 C0 1.34 0 0.68 0 0 Z " fill="#404C71" transform="translate(351,310)"/>
<path d="M0 0 C5.52474667 4.34926865 9.74509961 9.17576388 14.08203125 14.70703125 C15.79348075 17.0630454 15.79348075 17.0630454 18 18 C17.67 18.66 17.34 19.32 17 20 C11.17906949 18.1705647 7.22845629 14.09756256 4 9 C4 8.01 4 7.02 4 6 C2.68 5.34 1.36 4.68 0 4 C0 2.68 0 1.36 0 0 Z " fill="#3C78A4" transform="translate(271,160)"/>
<path d="M0 0 C4.41889613 1.35021826 6.34345343 3.26115668 9 7 C8.42942871 6.67781494 7.85885742 6.35562988 7.27099609 6.02368164 C4.88147911 4.94657514 3.26517806 4.70954192 0.6640625 4.62109375 C-0.56183594 4.56985352 -0.56183594 4.56985352 -1.8125 4.51757812 C-2.658125 4.49115234 -3.50375 4.46472656 -4.375 4.4375 C-13.37394997 4.11215335 -13.37394997 4.11215335 -16.921875 3.4765625 C-21.56704709 2.75738611 -26.18292824 2.89617416 -30.875 2.9375 C-32.33679688 2.94426758 -32.33679688 2.94426758 -33.828125 2.95117188 C-36.21881434 2.96289094 -38.6093744 2.97929781 -41 3 C-41 2.34 -41 1.68 -41 1 C-27.29209146 0.87338155 -13.68088132 1.11532407 0 2 C0 1.34 0 0.68 0 0 Z " fill="#9C9C62" transform="translate(212,284)"/>
<path d="M0 0 C0.66 0.33 1.32 0.66 2 1 C1.67 8.92 1.34 16.84 1 25 C-2.83736322 24.04065919 -3.59660228 23.76390737 -6 21 C-5.67 20.34 -5.34 19.68 -5 19 C-3.68 19.33 -2.36 19.66 -1 20 C-1.01160156 18.72382813 -1.02320313 17.44765625 -1.03515625 16.1328125 C-1.04453417 14.46354313 -1.05363437 12.79427217 -1.0625 11.125 C-1.07087891 10.28324219 -1.07925781 9.44148437 -1.08789062 8.57421875 C-1.09111328 7.76855469 -1.09433594 6.96289062 -1.09765625 6.1328125 C-1.10289307 5.38918457 -1.10812988 4.64555664 -1.11352539 3.87939453 C-1 2 -1 2 0 0 Z " fill="#3E78A2" transform="translate(248,182)"/>
<path d="M0 0 C0.99 0 1.98 0 3 0 C0.7379603 4.89924695 -2.62835762 8.82461257 -6 13 C-6.60714844 13.77988281 -7.21429688 14.55976563 -7.83984375 15.36328125 C-8.42894531 16.08902344 -9.01804688 16.81476563 -9.625 17.5625 C-10.15351563 18.22378906 -10.68203125 18.88507813 -11.2265625 19.56640625 C-13.56173515 21.45408987 -15.07720663 21.27432361 -18 21 C-18 20.34 -18 19.68 -18 19 C-16.02 18.67 -14.04 18.34 -12 18 C-12 16.35 -12 14.7 -12 13 C-10.68 13 -9.36 13 -8 13 C-8 12.01 -8 11.02 -8 10 C-7.34 10 -6.68 10 -6 10 C-6 8.68 -6 7.36 -6 6 C-5.01 6 -4.02 6 -3 6 C-2.67 5.01 -2.34 4.02 -2 3 C-1.34 3 -0.68 3 0 3 C0 2.01 0 1.02 0 0 Z " fill="#D7B16A" transform="translate(233,143)"/>
<path d="M0 0 C0.99 0.33 1.98 0.66 3 1 C3 2.65 3 4.3 3 6 C4.32 6 5.64 6 7 6 C7 6.66 7 7.32 7 8 C7.61875 8.20625 8.2375 8.4125 8.875 8.625 C11 10 11 10 12 13.0625 C12.33 14.031875 12.66 15.00125 13 16 C15.03243548 16.96877057 15.03243548 16.96877057 17 17 C16.67 18.32 16.34 19.64 16 21 C10.33333333 15.33333333 4.66666667 9.66666667 -1 4 C-0.34 3.67 0.32 3.34 1 3 C0.67 2.01 0.34 1.02 0 0 Z " fill="#BC5F5E" transform="translate(191,245)"/>
<path d="M0 0 C5.11187537 3.63729594 9.85624394 7.54099321 14.5 11.75 C15.31065918 12.4757019 15.31065918 12.4757019 16.13769531 13.21606445 C17.46572355 14.43456238 18.73823976 15.71300455 20 17 C20 17.66 20 18.32 20 19 C18.68 19 17.36 19 16 19 C15.79375 18.21625 15.5875 17.4325 15.375 16.625 C14.23569343 13.7066569 14.23569343 13.7066569 11.125 13.0625 C7.04049504 11.67376831 6.21355198 9.58748079 4 6 C3.01 5.67 2.02 5.34 1 5 C0.67 3.35 0.34 1.7 0 0 Z " fill="#E0B44E" transform="translate(280,111)"/>
<path d="M0 0 C1.98 0 3.96 0 6 0 C1.072588 5.0681952 -4.10029357 9.1583307 -10 13 C-10.66 12.67 -11.32 12.34 -12 12 C-11.1654738 9.49642139 -10.20628008 7.33214148 -9 5 C-6.36 5 -3.72 5 -1 5 C-0.67 3.35 -0.34 1.7 0 0 Z " fill="#3C4B79" transform="translate(345,334)"/>
<path d="M0 0 C1.125 3.75 1.125 3.75 0 6 C-0.67846862 13.12948168 -0.31605934 18.77145007 3.22265625 25.0625 C4.17903098 27.44622798 3.8441363 28.62155307 3 31 C-5.04090419 16.02473807 -5.04090419 16.02473807 -3.1875 7.8125 C-2.30425945 4.97683298 -1.48603239 2.54748409 0 0 Z " fill="#E2BF6E" transform="translate(142,229)"/>
<path d="M0 0 C6.31213662 0.92137942 9.66935264 2.05068873 14 7 C14.7425 7.350625 15.485 7.70125 16.25 8.0625 C18 9 18 9 18.75 11.125 C18.87375 12.053125 18.87375 12.053125 19 13 C15.2812584 13 14.7680642 12.17115761 12.125 9.6875 C6.82910612 4.638658 6.82910612 4.638658 0 3 C0 2.01 0 1.02 0 0 Z " fill="#E8BE59" transform="translate(251,122)"/>
<path d="M0 0 C3.35219738 3.24406198 6.53676364 6.62209917 9.6875 10.0625 C10.83798828 11.31740234 10.83798828 11.31740234 12.01171875 12.59765625 C13.7478555 14.69534604 14.92728969 16.51613066 16 19 C11.99129569 17.62558709 9.04850608 15.96611403 6 13 C4.6875 9.75 4.6875 9.75 4 7 C3.01 7 2.02 7 1 7 C0.67 4.69 0.34 2.38 0 0 Z " fill="#B05050" transform="translate(202,217)"/>
<path d="M0 0 C0 0.33 0 0.66 0 1 C-1.0725 1.12375 -2.145 1.2475 -3.25 1.375 C-6.80087937 1.77790392 -6.80087937 1.77790392 -9 3 C-14.70745304 5.85372652 -21.77005906 5.11281583 -28 5 C-18.57315726 0.19251922 -10.49388123 -0.37330012 0 0 Z " fill="#37446D" transform="translate(237,324)"/>
<path d="M0 0 C4.56925935 2.50262869 8.33329831 5.66992125 12.25 9.0625 C12.88679687 9.60455078 13.52359375 10.14660156 14.1796875 10.70507812 C18.87152778 14.74305556 18.87152778 14.74305556 20 17 C16.65750371 16.40312566 14.53563658 15.26396123 12 13 C12 12.34 12 11.68 12 11 C11.0409375 10.8453125 11.0409375 10.8453125 10.0625 10.6875 C9.0415625 10.3471875 9.0415625 10.3471875 8 10 C7.67 9.01 7.34 8.02 7 7 C5.35448038 6.28272222 3.68577711 5.61674772 2 5 C1.34 4.34 0.68 3.68 0 3 C0 2.01 0 1.02 0 0 Z " fill="#E3BB68" transform="translate(185,260)"/>
<path d="M0 0 C0.99 0.33 1.98 0.66 3 1 C2.34 1 1.68 1 1 1 C0.67 1.66 0.34 2.32 0 3 C0 2.01 0 1.02 0 0 Z M-1 2 C1 5 1 5 1 8 C-3.17737474 9.59138085 -6.53160785 10.21278058 -11 10 C-9.6875 8 -9.6875 8 -8 6 C-7.01 6 -6.02 6 -5 6 C-5 5.01 -5 4.02 -5 3 C-3 2 -3 2 -1 2 Z " fill="#BE2728" transform="translate(330,261)"/>
<path d="M0 0 C3.80637067 2.53758045 4.00479144 3.55983872 5 8 C5.5301911 14.6730949 5.7931716 20.3102426 2 26 C0.47387384 22.94774767 1.51478506 20.34259181 2 17 C2.32733783 12.19904516 1.96909809 8.43047071 0 4 C0 2.68 0 1.36 0 0 Z " fill="#C47C78" transform="translate(370,229)"/>
<path d="M0 0 C0 4.27932018 -1.44910824 7.41188684 -4.46484375 10.5 C-8.53160511 14 -8.53160511 14 -11 14 C-11.66 15.65 -12.32 17.3 -13 19 C-13.66 18.67 -14.32 18.34 -15 18 C-12.95411561 13.3698406 -10.69043478 10.43881423 -7 7 C-5.72519741 5.73314836 -4.45448818 4.46216689 -3.1875 3.1875 C-2.125 2.125 -1.0625 1.0625 0 0 Z " fill="#B0524E" transform="translate(298,231)"/>
<path d="M0 0 C0.928125 1.175625 0.928125 1.175625 1.875 2.375 C3.89858661 4.96837647 3.89858661 4.96837647 6 7 C6 7.99 6 8.98 6 10 C8.97 10.495 8.97 10.495 12 11 C12.33 13.64 12.66 16.28 13 19 C9.8095906 15.90929089 6.7532102 12.71078306 3.75 9.4375 C3.06421875 8.69371094 2.3784375 7.94992188 1.671875 7.18359375 C0.02220094 5.02899609 -0.69537504 3.67718471 -1 1 C-0.67 0.67 -0.34 0.34 0 0 Z " fill="#BB635F" transform="translate(177,229)"/>
<path d="M0 0 C0.33 0 0.66 0 1 0 C1 13.2 1 26.4 1 40 C-0.32 40.66 -1.64 41.32 -3 42 C-3 41.01 -3 40.02 -3 39 C-2.34 39 -1.68 39 -1 39 C-0.67 26.13 -0.34 13.26 0 0 Z " fill="#2E3760" transform="translate(288,186)"/>
<path d="M0 0 C0.33 0.99 0.66 1.98 1 3 C1.66 3 2.32 3 3 3 C3 3.66 3 4.32 3 5 C4.32 5 5.64 5 7 5 C8.30859375 6.49609375 8.30859375 6.49609375 9.4375 8.4375 C11.32570843 11.47445636 11.32570843 11.47445636 14.625 12.75 C15.40875 12.8325 16.1925 12.915 17 13 C18.8125 14.5625 18.8125 14.5625 20 16 C12.50749146 16 8.43912343 11.75141817 3 7 C1.79409691 5.9970707 0.58623814 4.99647961 -0.625 4 C-1.40875 3.34 -2.1925 2.68 -3 2 C-2.01 1.34 -1.02 0.68 0 0 Z " fill="#C06D69" transform="translate(224,276)"/>
<path d="M0 0 C1.32451032 0.87797837 2.63427808 1.77822214 3.9375 2.6875 C4.66839844 3.18636719 5.39929688 3.68523437 6.15234375 4.19921875 C8 6 8 6 9 11 C2.07 11 -4.86 11 -12 11 C-12 10.67 -12 10.34 -12 10 C-6.72 10 -1.44 10 4 10 C3.67 8.35 3.34 6.7 3 5 C2.01 4.34 1.02 3.68 0 3 C0 2.01 0 1.02 0 0 Z " fill="#6D92A6" transform="translate(231,300)"/>
<path d="M0 0 C3.32001887 4.9800283 5.06896285 9.86215166 4.875 15.875 C4.02579526 18.90787406 3.49359485 20.15690815 1 22 C0.01 21.67 -0.98 21.34 -2 21 C-1.34 21 -0.68 21 0 21 C0 20.01 0 19.02 0 18 C0.66 18 1.32 18 2 18 C2 14.7 2 11.4 2 8 C1.34 8 0.68 8 0 8 C0 5.36 0 2.72 0 0 Z " fill="#B96A65" transform="translate(246,269)"/>
<path d="M0 0 C0.99 0.33 1.98 0.66 3 1 C3 4.3 3 7.6 3 11 C5.97 10.34 8.94 9.68 12 9 C9.52414762 11.65269897 7.40973899 13.68010103 4 15 C3.01 15 2.02 15 1 15 C0.67 10.05 0.34 5.1 0 0 Z " fill="#306A9E" transform="translate(261,183)"/>
<path d="M0 0 C0.66 0.33 1.32 0.66 2 1 C1.25 3.4375 1.25 3.4375 0 6 C-1.33076989 6.34342449 -2.66431979 6.67619874 -4 7 C-4.45375 7.78375 -4.9075 8.5675 -5.375 9.375 C-7.41145982 12.66466586 -9.492817 13.5191894 -13 15 C-11.60580513 10.33868583 -8.97151638 7.76827228 -5.375 4.6875 C-4.859375 4.23310547 -4.34375 3.77871094 -3.8125 3.31054688 C-2.5487557 2.19891994 -1.27532824 1.0983178 0 0 Z " fill="#E2B745" transform="translate(312,271)"/>
<path d="M0 0 C5.75 1.75 5.75 1.75 8 4 C8 4.99 8 5.98 8 7 C14.27 7.33 20.54 7.66 27 8 C27 8.33 27 8.66 27 9 C11.23620425 11.32970876 11.23620425 11.32970876 5.80078125 8.09765625 C0 2.18478261 0 2.18478261 0 0 Z " fill="#D7B55C" transform="translate(160,276)"/>
<path d="M0 0 C3.40210749 2.67308445 6.28947616 5.24760124 9 8.625 C11.60809314 11.79197025 14.15451773 13.44349527 18 15 C17.67 15.66 17.34 16.32 17 17 C13.38058265 15.49760034 10.2678206 14.17854707 7 12 C7 11.01 7 10.02 7 9 C6.34 9 5.68 9 5 9 C4.54625 8.195625 4.0925 7.39125 3.625 6.5625 C2.26579005 3.84763807 2.26579005 3.84763807 -0.1875 3.1875 C-0.785625 3.125625 -1.38375 3.06375 -2 3 C-1.34 2.01 -0.68 1.02 0 0 Z " fill="#F29E2E" transform="translate(282,250)"/>
<path d="M0 0 C2.63056311 1.45184084 4.67105168 3.06746841 7 5 C6.01 5.495 6.01 5.495 5 6 C2.375 5.0625 2.375 5.0625 0 4 C0 3.34 0 2.68 0 2 C-1.35544922 2.10828125 -1.35544922 2.10828125 -2.73828125 2.21875 C-4.50751953 2.35796875 -4.50751953 2.35796875 -6.3125 2.5 C-7.48425781 2.5928125 -8.65601563 2.685625 -9.86328125 2.78125 C-11.905194 2.92364989 -13.9531279 3 -16 3 C-10.68818589 -1.21281809 -6.4789284 -1.61705486 0 0 Z " fill="#D9B578" transform="translate(256,91)"/>
<path d="M0 0 C0 3 0 3 -1.9375 5 C-2.618125 5.66 -3.29875 6.32 -4 7 C-4.33 7.99 -4.66 8.98 -5 10 C-7.86040111 12.01001159 -10.51039157 13.5186747 -14 14 C-14.66 13.67 -15.32 13.34 -16 13 C-14.08435828 11.39459585 -12.16753088 9.790645 -10.25 8.1875 C-9.71117187 7.73568359 -9.17234375 7.28386719 -8.6171875 6.81835938 C-5.79990684 4.46489931 -2.964465 2.16578632 0 0 Z " fill="#C36860" transform="translate(330,257)"/>
<path d="M0 0 C1.16402344 -0.02513672 1.16402344 -0.02513672 2.3515625 -0.05078125 C3.35316406 0.12904297 3.35316406 0.12904297 4.375 0.3125 C5.035 1.3025 5.695 2.2925 6.375 3.3125 C5.73433594 3.34988281 5.09367188 3.38726562 4.43359375 3.42578125 C-1.22506141 3.85587277 -5.54673813 4.77336906 -10.625 7.3125 C-9.15264977 2.6500576 -9.15264977 2.6500576 -6.8359375 1.16796875 C-4.41796477 0.23239273 -2.58570856 0.01297178 0 0 Z " fill="#505979" transform="translate(164.625,306.6875)"/>
<path d="M0 0 C2.8125 0.625 2.8125 0.625 6 2 C6.433125 2.928125 6.86625 3.85625 7.3125 4.8125 C9.47537233 8.89792551 11.89081417 9.92650945 15.94140625 11.921875 C18 13 18 13 20 15 C14.04047256 14.87584318 11.17846444 13.03953954 6.8671875 8.98828125 C4.22519572 6.1749469 2.10944559 3.23008856 0 0 Z " fill="#BF4014" transform="translate(283,250)"/>
<path d="M0 0 C1.98 0.66 3.96 1.32 6 2 C6 2.99 6 3.98 6 5 C6.66 5 7.32 5 8 5 C12 10.41176471 12 10.41176471 12 13 C12.66 13 13.32 13 14 13 C13.67 13.99 13.34 14.98 13 16 C11.20263155 14.0884175 9.41210526 12.17113816 7.625 10.25 C7.11710938 9.71117187 6.60921875 9.17234375 6.0859375 8.6171875 C3.5759302 5.90902173 1.38972557 3.44919841 0 0 Z " fill="#E0B756" transform="translate(146,260)"/>
<path d="M0 0 C1.32 0 2.64 0 4 0 C4 0.66 4 1.32 4 2 C9.94 1.67 15.88 1.34 22 1 C22 1.33 22 1.66 22 2 C10.00660066 5.8387553 10.00660066 5.8387553 4 4 C1.5625 1.9375 1.5625 1.9375 0 0 Z " fill="#59819F" transform="translate(196,310)"/>
<path d="M0 0 C4.29 0 8.58 0 13 0 C10 2 10 2 7 2 C7 2.66 7 3.32 7 4 C7.66 4 8.32 4 9 4 C9.33 4.99 9.66 5.98 10 7 C4.50878404 5.62719601 3.8538772 4.81734651 0 0 Z " fill="#417AA8" transform="translate(172,287)"/>
<path d="M0 0 C1.65 0 3.3 0 5 0 C5 0.66 5 1.32 5 2 C6.65 1.67 8.3 1.34 10 1 C9.33333333 2.33333333 8.66666667 3.66666667 8 5 C9.32 5.33 10.64 5.66 12 6 C12.33 7.65 12.66 9.3 13 11 C8.30840284 7.61227103 3.9700218 4.21814817 0 0 Z " fill="#B65B56" transform="translate(208,266)"/>
<path d="M0 0 C0.66 0 1.32 0 2 0 C3.36176922 1.64351457 4.68962066 3.31522656 6 5 C6.886875 5.886875 7.77375 6.77375 8.6875 7.6875 C11 10 11 10 12 12 C10.35 11.67 8.7 11.34 7 11 C7 10.01 7 9.02 7 8 C5.68 8 4.36 8 3 8 C1.58622659 5.36095629 0.62759865 2.92879371 0 0 Z " fill="#B96461" transform="translate(218,236)"/>
<path d="M0 0 C0.33 0 0.66 0 1 0 C0.88617347 1.95901454 0.75858875 3.9172338 0.625 5.875 C0.55539063 6.96554688 0.48578125 8.05609375 0.4140625 9.1796875 C0 12 0 12 -2 14 C-2.24212873 15.98128508 -2.24212873 15.98128508 -2.125 18.125 C-2.08375 19.40375 -2.0425 20.6825 -2 22 C-2.66 22 -3.32 22 -4 22 C-4 18.04 -4 14.08 -4 10 C-3.34 9.67 -2.68 9.34 -2 9 C-1.5720382 7.13690908 -1.5720382 7.13690908 -1.4375 5 C-1.09589041 1.09589041 -1.09589041 1.09589041 0 0 Z " fill="#D99F3A" transform="translate(209,133)"/>
<path d="M0 0 C5.94 1.485 5.94 1.485 12 3 C12 3.66 12 4.32 12 5 C12.66 5.33 13.32 5.66 14 6 C9.02906176 5.58846263 4.55491614 5.20399168 0 3 C0 2.01 0 1.02 0 0 Z " fill="#5B6385" transform="translate(288,350)"/>
<path d="M0 0 C0.33 0.99 0.66 1.98 1 3 C0.03126968 4.35622245 -0.97676564 5.68441297 -2 7 C-3.03842565 9.31648799 -4.0421975 11.64903024 -5 14 C-5.33 14.66 -5.66 15.32 -6 16 C-6.66 15.67 -7.32 15.34 -8 15 C-7.23856331 13.05878789 -6.46548643 11.12213883 -5.6875 9.1875 C-5.25824219 8.10855469 -4.82898438 7.02960938 -4.38671875 5.91796875 C-3.14663459 3.30855223 -2.18468549 1.82591016 0 0 Z " fill="#E1B654" transform="translate(276,254)"/>
<path d="M0 0 C0.66 0.33 1.32 0.66 2 1 C2 5.54137322 1.36299463 6.33030059 -1.375 9.75 C-2.31472656 10.94882812 -2.31472656 10.94882812 -3.2734375 12.171875 C-3.84320313 12.77515625 -4.41296875 13.3784375 -5 14 C-5.66 14 -6.32 14 -7 14 C-7.33 13.01 -7.66 12.02 -8 11 C-7.34 10.34 -6.68 9.68 -6 9 C-5.01 9 -4.02 9 -3 9 C-3 7.68 -3 6.36 -3 5 C-2.01 5 -1.02 5 0 5 C0 3.35 0 1.7 0 0 Z " fill="#B35657" transform="translate(368,253)"/>
<path d="M0 0 C1.32 0 2.64 0 4 0 C4.226875 0.804375 4.45375 1.60875 4.6875 2.4375 C5.120625 3.283125 5.55375 4.12875 6 5 C8.54775306 5.89386164 8.54775306 5.89386164 11 6 C10.01 7.32 9.02 8.64 8 10 C6.84806377 8.90220176 5.70365063 7.79650554 4.5625 6.6875 C3.92441406 6.07261719 3.28632813 5.45773437 2.62890625 4.82421875 C1 3 1 3 0 0 Z " fill="#4B597B" transform="translate(265,333)"/>
<path d="M0 0 C4.62228876 1.91267121 6.35062015 4.44148837 8.25 9 C8.98141778 11.92567111 9.06203756 13.23870233 8 16 C8 15.34 8 14.68 8 14 C7.34 14 6.68 14 6 14 C4.64560332 11.29120665 4.93498549 8.99066732 5 6 C4.01 5.67 3.02 5.34 2 5 C0.8125 2.4375 0.8125 2.4375 0 0 Z " fill="#B46565" transform="translate(330,184)"/>
<path d="M0 0 C3.13272458 0.07285406 5.26611628 0.24525653 7.51171875 2.5546875 C11 7.37231375 11 7.37231375 11 10 C7.81326038 8.59698853 5.67778594 6.92234929 3.25 4.4375 C2.63640625 3.81746094 2.0228125 3.19742188 1.390625 2.55859375 C0 1 0 1 0 0 Z " fill="#545E87" transform="translate(227,229)"/>
<path d="M0 0 C0.99 0 1.98 0 3 0 C1.59155282 3.21524305 -0.10344786 5.32183868 -2.625 7.75 C-3.57246094 8.67039062 -3.57246094 8.67039062 -4.5390625 9.609375 C-5.02117187 10.06828125 -5.50328125 10.5271875 -6 11 C-6.66 10.01 -7.32 9.02 -8 8 C-6.625 6.5 -6.625 6.5 -5 5 C-4.34 5 -3.68 5 -3 5 C-3 4.34 -3 3.68 -3 3 C-2.01 3 -1.02 3 0 3 C0 2.01 0 1.02 0 0 Z " fill="#535E7D" transform="translate(243,334)"/>
<path d="M0 0 C0.66 0.33 1.32 0.66 2 1 C2 2.65 2 4.3 2 6 C1.01 6 0.02 6 -1 6 C-1 6.99 -1 7.98 -1 9 C-1.99 8.67 -2.98 8.34 -4 8 C-3.6875 5.125 -3.6875 5.125 -3 2 C-2.01 1.34 -1.02 0.68 0 0 Z " fill="#1E356C" transform="translate(244,328)"/>
<path d="M0 0 C1.65 0 3.3 0 5 0 C5 0.66 5 1.32 5 2 C5.66 2.33 6.32 2.66 7 3 C4.36 5.64 1.72 8.28 -1 11 C-1.66 10.67 -2.32 10.34 -3 10 C-2.67 9.01 -2.34 8.02 -2 7 C-1.34 7 -0.68 7 0 7 C0 6.34 0 5.68 0 5 C1.29233607 3.62689293 2.62437146 2.28965176 4 1 C2.68 0.67 1.36 0.34 0 0 Z " fill="#598BA7" transform="translate(332,288)"/>
<path d="M0 0 C0.33 0.66 0.66 1.32 1 2 C0.67 2.66 0.34 3.32 0 4 C0.66 4 1.32 4 2 4 C0.90537324 7.1744176 0.01822665 7.98914157 -2.9375 9.75 C-6 11 -6 11 -9 11 C-8.51789063 10.45730469 -8.03578125 9.91460937 -7.5390625 9.35546875 C-6.90742188 8.64003906 -6.27578125 7.92460937 -5.625 7.1875 C-4.68527344 6.12595703 -4.68527344 6.12595703 -3.7265625 5.04296875 C-1.859401 2.91196181 -1.859401 2.91196181 0 0 Z " fill="#B95752" transform="translate(345,241)"/>
<path d="M0 0 C-2.97 2.97 -5.94 5.94 -9 9 C-9.33 7.68 -9.66 6.36 -10 5 C-9.34 5 -8.68 5 -8 5 C-7.731875 4.195625 -7.46375 3.39125 -7.1875 2.5625 C-6.5996875 1.2940625 -6.5996875 1.2940625 -6 0 C-3 -1 -3 -1 0 0 Z " fill="#53607F" transform="translate(285,229)"/>
<path d="M0 0 C2.475 0.99 2.475 0.99 5 2 C5 2.66 5 3.32 5 4 C5.5775 4.2475 6.155 4.495 6.75 4.75 C9.3002997 6.16683317 11.01785701 7.87627537 13 10 C7.78891146 8.6351911 4.83408676 6.65575714 1 3 C0.67 2.01 0.34 1.02 0 0 Z " fill="#DFBA64" transform="translate(267,101)"/>
<path d="M0 0 C1.32 0.33 2.64 0.66 4 1 C1.74109621 3.51954654 -0.417897 4.87332733 -3.5 6.25 C-4.2734375 6.60578125 -5.046875 6.9615625 -5.84375 7.328125 C-8 8 -8 8 -11 7 C-10.360625 6.896875 -9.72125 6.79375 -9.0625 6.6875 C-8.381875 6.460625 -7.70125 6.23375 -7 6 C-6.67 5.01 -6.34 4.02 -6 3 C-2.9375 1.8125 -2.9375 1.8125 0 1 C0 0.67 0 0.34 0 0 Z " fill="#5D6786" transform="translate(329,346)"/>
<path d="M0 0 C1.25296875 0.13921875 2.5059375 0.2784375 3.796875 0.421875 C5.06015625 0.55078125 6.3234375 0.6796875 7.625 0.8125 C8.58921875 0.93109375 9.5534375 1.0496875 10.546875 1.171875 C10.546875 1.501875 10.546875 1.831875 10.546875 2.171875 C1.636875 3.161875 1.636875 3.161875 -7.453125 4.171875 C-3.453125 0.171875 -3.453125 0.171875 0 0 Z " fill="#B54717" transform="translate(319.453125,269.828125)"/>
<path d="M0 0 C1 2 1 2 0.44140625 4.1640625 C0.15136719 4.97617187 -0.13867188 5.78828125 -0.4375 6.625 C-0.72496094 7.44226563 -1.01242187 8.25953125 -1.30859375 9.1015625 C-1.65083984 10.04128906 -1.65083984 10.04128906 -2 11 C-2.66 11 -3.32 11 -4 11 C-4.66 12.32 -5.32 13.64 -6 15 C-6 10.86602932 -5.42079548 9.37642646 -3.5625 5.8125 C-2.88380859 4.49185547 -2.88380859 4.49185547 -2.19140625 3.14453125 C-1 1 -1 1 0 0 Z " fill="#E3BE6B" transform="translate(270,262)"/>
<path d="M0 0 C0.99 0.495 0.99 0.495 2 1 C2 1.66 2 2.32 2 3 C2.8353125 3.2784375 2.8353125 3.2784375 3.6875 3.5625 C7.06754192 5.66360714 8.85140381 8.70665994 11 12 C10.67 12.66 10.34 13.32 10 14 C5.3478325 10.80994228 2.53009634 6.97406173 0 2 C0 1.34 0 0.68 0 0 Z " fill="#BE7170" transform="translate(232,250)"/>
<path d="M0 0 C1.82163071 3.55420392 3.36738936 7.19377283 4.90234375 10.87890625 C6.01889183 13.03650628 7.19729727 14.39246167 9 16 C6.625 15.6875 6.625 15.6875 4 15 C2 12 2 12 2 8 C1.34 8 0.68 8 0 8 C0 5.36 0 2.72 0 0 Z " fill="#E0B96D" transform="translate(165,234)"/>
<path d="M0 0 C0.33 0 0.66 0 1 0 C1 3.3 1 6.6 1 10 C-3.59037956 8.85240511 -4.33669182 7.70960782 -7 4 C-4.69 4.33 -2.38 4.66 0 5 C0 3.35 0 1.7 0 0 Z " fill="#4C536F" transform="translate(248,238)"/>
<path d="M0 0 C2.31 0 4.62 0 7 0 C6.01 1.485 6.01 1.485 5 3 C5.66 4.32 6.32 5.64 7 7 C5.35 6.67 3.7 6.34 2 6 C1.34 4.02 0.68 2.04 0 0 Z " fill="#2D3E6B" transform="translate(262,326)"/>
<path d="M0 0 C0.99 0.66 1.98 1.32 3 2 C2.67 2.66 2.34 3.32 2 4 C-1.63 4 -5.26 4 -9 4 C-8.67 3.01 -8.34 2.02 -8 1 C-5.22899606 -0.38550197 -3.0665294 -0.1877467 0 0 Z " fill="#C48081" transform="translate(360,217)"/>
<path d="M0 0 C1.65 0 3.3 0 5 0 C5 2 5 2 2.5625 4.5625 C1.716875 5.366875 0.87125 6.17125 0 7 C-0.33 7.33 -0.66 7.66 -1 8 C-2.66617115 8.04063832 -4.33388095 8.042721 -6 8 C-6 7.34 -6 6.68 -6 6 C-4.02 5.67 -2.04 5.34 0 5 C0 3.35 0 1.7 0 0 Z " fill="#D3AD59" transform="translate(221,156)"/>
<path d="M0 0 C1.98 0 3.96 0 6 0 C4.33333333 1.66666667 2.66666667 3.33333333 1 5 C0.443125 5.598125 -0.11375 6.19625 -0.6875 6.8125 C-2 8 -2 8 -4 8 C-4 7.01 -4 6.02 -4 5 C-3.01 5 -2.02 5 -1 5 C-0.67 3.35 -0.34 1.7 0 0 Z " fill="#576784" transform="translate(345,334)"/>
<path d="M0 0 C0.99 0.33 1.98 0.66 3 1 C3 1.66 3 2.32 3 3 C6.3 3 9.6 3 13 3 C13 3.99 13 4.98 13 6 C7.70886076 7.20253165 7.70886076 7.20253165 4.8125 6.375 C2.46769136 4.59617965 1.35946338 2.58298041 0 0 Z " fill="#A52F31" transform="translate(233,284)"/>
<path d="M0 0 C7.26 0 14.52 0 22 0 C22 0.99 22 1.98 22 3 C20.68 3 19.36 3 18 3 C18 2.34 18 1.68 18 1 C12.06 1 6.12 1 0 1 C0 0.67 0 0.34 0 0 Z " fill="#828C6D" transform="translate(319,287)"/>
<path d="M0 0 C2.31 1.98 4.62 3.96 7 6 C6.01 6.495 6.01 6.495 5 7 C5 7.66 5 8.32 5 9 C4.01 8.67 3.02 8.34 2 8 C2 6.68 2 5.36 2 4 C0.68 4 -0.64 4 -2 4 C-2 3.34 -2 2.68 -2 2 C-1.34 2 -0.68 2 0 2 C0 1.34 0 0.68 0 0 Z " fill="#E3BC5D" transform="translate(206,277)"/>
<path d="M0 0 C0.91007812 0.00902344 1.82015625 0.01804687 2.7578125 0.02734375 C3.45648438 0.03894531 4.15515625 0.05054688 4.875 0.0625 C3.555 0.3925 2.235 0.7225 0.875 1.0625 C0.875 1.7225 0.875 2.3825 0.875 3.0625 C-3.085 3.0625 -7.045 3.0625 -11.125 3.0625 C-6.71937055 0.85968527 -4.82608364 -0.06187287 0 0 Z " fill="#B83614" transform="translate(336.125,267.9375)"/>
<path d="M0 0 C3 2 3 2 3.9375 5.0625 C4.4634375 6.5165625 4.4634375 6.5165625 5 8 C7.03243548 8.96877057 7.03243548 8.96877057 9 9 C8.67 10.32 8.34 11.64 8 13 C4.72653393 9.90347804 2.02490044 7.04980088 0 3 C0 2.01 0 1.02 0 0 Z " fill="#B95756" transform="translate(199,253)"/>
<path d="M0 0 C2.1519437 3.22791555 2.20086443 4.28400809 2 8 C0.35 7.67 -1.3 7.34 -3 7 C-3.33 7.66 -3.66 8.32 -4 9 C-4.66 8.67 -5.32 8.34 -6 8 C-6 6 -6 6 -3.5625 3.4375 C-2.716875 2.633125 -1.87125 1.82875 -1 1 C-0.67 0.67 -0.34 0.34 0 0 Z " fill="#B94E4F" transform="translate(305,223)"/>
<path d="M0 0 C0.43200679 4.75207471 -1.01510917 7.78210698 -3 12 C-3.33 12 -3.66 12 -4 12 C-4.59732819 9.23735711 -5 6.83967231 -5 4 C-1.45714286 0 -1.45714286 0 0 0 Z " fill="#5888AC" transform="translate(228,173)"/>
<path d="M0 0 C1.98 0 3.96 0 6 0 C5.56802365 4.7517398 4.67230705 6.92000054 1 10 C0.875 7.125 0.875 7.125 1 4 C1.66 3.34 2.32 2.68 3 2 C2.01 1.34 1.02 0.68 0 0 Z " fill="#4E5775" transform="translate(245,324)"/>
<path d="M0 0 C-0.33 1.65 -0.66 3.3 -1 5 C-1.66 5 -2.32 5 -3 5 C-3 4.34 -3 3.68 -3 3 C-3.99 3.495 -3.99 3.495 -5 4 C-7.04055005 4.07065617 -9.08334257 4.08421976 -11.125 4.0625 C-12.22070312 4.05347656 -13.31640625 4.04445313 -14.4453125 4.03515625 C-15.70988281 4.01775391 -15.70988281 4.01775391 -17 4 C-17 3.67 -17 3.34 -17 3 C-16.08476562 2.86722656 -15.16953125 2.73445313 -14.2265625 2.59765625 C-13.03804688 2.42105469 -11.84953125 2.24445313 -10.625 2.0625 C-9.44164062 1.88847656 -8.25828125 1.71445312 -7.0390625 1.53515625 C-4.47352859 1.08338485 -2.5415907 0 0 0 Z " fill="#1D2F5D" transform="translate(318,327)"/>
<path d="M0 0 C0.66 0 1.32 0 2 0 C0.76075855 4.95696581 -0.78577758 7.11658466 -5 10 C-5 8.68 -5 7.36 -5 6 C-4.34 6 -3.68 6 -3 6 C-2.87625 5.38125 -2.7525 4.7625 -2.625 4.125 C-2 2 -2 2 0 0 Z " fill="#4E5A78" transform="translate(356,324)"/>
<path d="M0 0 C-1.17578125 1.953125 -1.17578125 1.953125 -3 4 C-5.48046875 4.609375 -5.48046875 4.609375 -8.1875 4.75 C-9.08855469 4.80671875 -9.98960937 4.8634375 -10.91796875 4.921875 C-11.60503906 4.94765625 -12.29210937 4.9734375 -13 5 C-8.5441535 1.61874434 -5.74820565 -0.31934476 0 0 Z " fill="#60718E" transform="translate(323,324)"/>
<path d="M0 0 C4.41889613 1.35021826 6.34345343 3.26115668 9 7 C8.46890625 6.68289063 7.9378125 6.36578125 7.390625 6.0390625 C4.45464152 4.7629651 1.93825671 4.58292979 -1.25 4.375 C-2.32765625 4.30023438 -3.4053125 4.22546875 -4.515625 4.1484375 C-5.74539062 4.07496094 -5.74539062 4.07496094 -7 4 C-7 3.67 -7 3.34 -7 3 C-3.535 2.505 -3.535 2.505 0 2 C0 1.34 0 0.68 0 0 Z " fill="#BAB07D" transform="translate(212,284)"/>
<path d="M0 0 C0.66 0 1.32 0 2 0 C1.835 1.134375 1.67 2.26875 1.5 3.4375 C0.92423916 7.97060294 0.90494734 12.43747238 1 17 C-1.32613583 13.51079626 -1.24247293 12.05047454 -1.1875 7.9375 C-1.18105469 6.87402344 -1.17460937 5.81054688 -1.16796875 4.71484375 C-1 2 -1 2 0 0 Z " fill="#E4B32B" transform="translate(142,233)"/>
<path d="M0 0 C-1.55500981 3.81684226 -4.03595495 6.19195732 -7 9 C-7.99 8.67 -8.98 8.34 -10 8 C-9.34 8 -8.68 8 -8 8 C-8 6.68 -8 5.36 -8 4 C-6.68 4 -5.36 4 -4 4 C-4 3.01 -4 2.02 -4 1 C-2 0 -2 0 0 0 Z " fill="#59647F" transform="translate(272,239)"/>
<path d="M0 0 C3.28788824 3.11016455 5.83735988 6.01618925 8 10 C6.68 9.67 5.36 9.34 4 9 C4 8.34 4 7.68 4 7 C3.01 7 2.02 7 1 7 C0.67 4.69 0.34 2.38 0 0 Z " fill="#B56362" transform="translate(202,217)"/>
<path d="M0 0 C0.33 0.99 0.66 1.98 1 3 C-0.98620112 6.53102422 -3.56095848 8.00897596 -7 10 C-7.33 10.66 -7.66 11.32 -8 12 C-8.66 12 -9.32 12 -10 12 C-8.62845314 8.81580579 -7.13830017 7.02887404 -4.4375 4.875 C-1.78974334 2.79096366 -1.78974334 2.79096366 0 0 Z " fill="#6593B3" transform="translate(249,150)"/>
<path d="M0 0 C0.33 0.66 0.66 1.32 1 2 C0.14453125 4.09375 0.14453125 4.09375 -1.1875 6.5 C-1.61417969 7.2940625 -2.04085937 8.088125 -2.48046875 8.90625 C-4.13704667 11.18883551 -5.40664227 11.97820595 -8 13 C-6.62408154 8.9869045 -4.72281449 6.2333422 -2 3 C-1.34 2.01 -0.68 1.02 0 0 Z " fill="#DFB674" transform="translate(216,121)"/>
<path d="M0 0 C3.78383679 0.92493788 5.56693694 1.39371171 7.875 4.625 C8.431875 5.800625 8.431875 5.800625 9 7 C7.35 6.67 5.7 6.34 4 6 C3.67 5.01 3.34 4.02 3 3 C2.34 3 1.68 3 1 3 C0.67 2.01 0.34 1.02 0 0 Z " fill="#CFA150" transform="translate(259,96)"/>
<path d="M0 0 C0.99 0 1.98 0 3 0 C3 1.65 3 3.3 3 5 C1.68 5 0.36 5 -1 5 C-1 5.66 -1 6.32 -1 7 C-1.99 7 -2.98 7 -4 7 C-4.33 7.99 -4.66 8.98 -5 10 C-5 8.68 -5 7.36 -5 6 C-4.01 6 -3.02 6 -2 6 C-1.34 4.02 -0.68 2.04 0 0 Z " fill="#E8AF27" transform="translate(351,270)"/>
<path d="M0 0 C0.66 0 1.32 0 2 0 C2 0.66 2 1.32 2 2 C5.3 2 8.6 2 12 2 C12 2.33 12 2.66 12 3 C7.05 3.33 2.1 3.66 -3 4 C-2.01 2.68 -1.02 1.36 0 0 Z " fill="#C1B772" transform="translate(295,286)"/>
<path d="M0 0 C-0.99 0.33 -1.98 0.66 -3 1 C-3 1.99 -3 2.98 -3 4 C-4.98 4 -6.96 4 -9 4 C-9 3.01 -9 2.02 -9 1 C-3.375 -1.125 -3.375 -1.125 0 0 Z " fill="#E3B655" transform="translate(275,288)"/>
<path d="M0 0 C0.33 0 0.66 0 1 0 C1.13277344 0.86882812 1.26554688 1.73765625 1.40234375 2.6328125 C1.66724609 4.36144531 1.66724609 4.36144531 1.9375 6.125 C2.11152344 7.26195312 2.28554687 8.39890625 2.46484375 9.5703125 C2.95589266 12.71732669 3.47018719 15.85930783 4 19 C1.46756317 17.12819886 1.00099762 16.00453464 0.3125 12.875 C-0.03505111 8.56536624 -0.08816095 4.31988651 0 0 Z " fill="#E9B12C" transform="translate(161,223)"/>
<path d="M0 0 C2.375 -0.1875 2.375 -0.1875 5 0 C5.66 0.99 6.32 1.98 7 3 C2.545 3.495 2.545 3.495 -2 4 C-1.34 2.68 -0.68 1.36 0 0 Z " fill="#DFB240" transform="translate(153,218)"/>
<path d="M0 0 C2.31 0.33 4.62 0.66 7 1 C7.66 2.65 8.32 4.3 9 6 C4.75177626 5.52797514 2.80010291 3.03344482 0 0 Z " fill="#E4B85B" transform="translate(269,136)"/>
<path d="M0 0 C1.48484412 0.39595843 2.9628831 0.81750706 4.4375 1.25 C5.26121094 1.48203125 6.08492188 1.7140625 6.93359375 1.953125 C9 3 9 3 9.78515625 5.109375 C9.85605469 5.73328125 9.92695313 6.3571875 10 7 C5.56541027 5.6062718 3.12621626 3.39417765 0 0 Z " fill="#686E8C" transform="translate(274,343)"/>
<path d="M0 0 C-1.10699901 3.21029714 -2.01603825 4.00968977 -5 5.8125 C-5.99 6.204375 -6.98 6.59625 -8 7 C-8.66 6.67 -9.32 6.34 -10 6 C-8.90398831 4.99106869 -7.79786082 3.99311775 -6.6875 3 C-6.07261719 2.443125 -5.45773437 1.88625 -4.82421875 1.3125 C-3 0 -3 0 0 0 Z " fill="#5984AB" transform="translate(284,298)"/>
<path d="M0 0 C2.64 0 5.28 0 8 0 C5.35261084 1.4606285 4.10551666 2 1 2 C1 2.99 1 3.98 1 5 C0.01 5.33 -0.98 5.66 -2 6 C-2 4.68 -2 3.36 -2 2 C-1.34 2 -0.68 2 0 2 C0 1.34 0 0.68 0 0 Z M-4 6 C-2 7 -2 7 -2 7 Z " fill="#3072A1" transform="translate(291,291)"/>
<path d="M0 0 C0.66 0.33 1.32 0.66 2 1 C1.4375 3.375 1.4375 3.375 0 6 C-3.625 7.3125 -3.625 7.3125 -7 8 C-6.02133662 6.85373678 -5.04205413 5.70800212 -4.0625 4.5625 C-3.51722656 3.92441406 -2.97195313 3.28632813 -2.41015625 2.62890625 C-1.63204305 1.73008851 -0.84063472 0.84063472 0 0 Z " fill="#E0B667" transform="translate(312,271)"/>
<path d="M0 0 C0.99 0.33 1.98 0.66 3 1 C1.85760183 2.33627775 0.71098945 3.66895388 -0.4375 5 C-1.07558594 5.7425 -1.71367187 6.485 -2.37109375 7.25 C-3.17740234 8.11625 -3.17740234 8.11625 -4 9 C-4.33 9 -4.66 9 -5 9 C-5.3125 6.75 -5.3125 6.75 -5 4 C-2.6875 1.625 -2.6875 1.625 0 0 Z " fill="#DFB071" transform="translate(359,267)"/>
<path d="M0 0 C0.33 0 0.66 0 1 0 C0.74438677 2.3431213 0.40729228 4.67843403 0 7 C-0.99 7.495 -0.99 7.495 -2 8 C-2.33 7.01 -2.66 6.02 -3 5 C-3 6.65 -3 8.3 -3 10 C-3.33 10 -3.66 10 -4 10 C-4.125 4.25 -4.125 4.25 -3 2 C-2.01 2 -1.02 2 0 2 C0 1.34 0 0.68 0 0 Z " fill="#AA2C2E" transform="translate(371,248)"/>
<path d="M0 0 C0.66 0.33 1.32 0.66 2 1 C0.02579865 3.52259061 -0.96745642 3.9929808 -4.1875 4.6875 C-5.5796875 4.8421875 -5.5796875 4.8421875 -7 5 C-4.63707344 2.47411298 -3.33537489 1.11179163 0 0 Z M-8 5 C-8 5.99 -8 6.98 -8 8 C-8.99 8 -9.98 8 -11 8 C-10.01 7.01 -9.02 6.02 -8 5 Z " fill="#184281" transform="translate(282,188)"/>
<path d="M0 0 C0.66 0 1.32 0 2 0 C2 1.32 2 2.64 2 4 C1.01 4 0.02 4 -1 4 C-1 4.99 -1 5.98 -1 7 C-3 8.6875 -3 8.6875 -5 10 C-4.67 8.35 -4.34 6.7 -4 5 C-3.34 5 -2.68 5 -2 5 C-1.7834375 4.0409375 -1.7834375 4.0409375 -1.5625 3.0625 C-1 1 -1 1 0 0 Z " fill="#D99C36" transform="translate(234,139)"/>
<path d="M0 0 C0.33 0.66 0.66 1.32 1 2 C0.125 3.9375 0.125 3.9375 -1 6 C-1.33 6.99 -1.66 7.98 -2 9 C-3.65 9.33 -5.3 9.66 -7 10 C-6.67 9.01 -6.34 8.02 -6 7 C-5.34 7 -4.68 7 -4 7 C-3.71125 6.401875 -3.4225 5.80375 -3.125 5.1875 C-2 3 -2 3 0 0 Z " fill="#DFB477" transform="translate(228,107)"/>
<path d="M0 0 C0.99 0 1.98 0 3 0 C3 0.66 3 1.32 3 2 C-1.35294118 6 -1.35294118 6 -5 6 C-4.67 4.68 -4.34 3.36 -4 2 C-2.68 2 -1.36 2 0 2 C0 1.34 0 0.68 0 0 Z " fill="#E2BF54" transform="translate(295,270)"/>
<path d="M0 0 C3.53271727 2.35514485 4.44025604 4.10064011 6 8 C5.578125 10.1953125 5.578125 10.1953125 5 12 C4.16180842 10.37750059 3.3295884 8.75191503 2.5 7.125 C2.0359375 6.22007812 1.571875 5.31515625 1.09375 4.3828125 C0 2 0 2 0 0 Z " fill="#DCB968" transform="translate(140,248)"/>
<path d="M0 0 C0.33 0 0.66 0 1 0 C1.66 3.3 2.32 6.6 3 10 C1.68 9.67 0.36 9.34 -1 9 C-1.09765625 2.84765625 -1.09765625 2.84765625 -1 1 C-0.67 0.67 -0.34 0.34 0 0 Z " fill="#3A6C93" transform="translate(223,179)"/>
<path d="M0 0 C2.475 0.99 2.475 0.99 5 2 C5.33 4.64 5.66 7.28 6 10 C3.47650757 6.87567603 1.72743854 3.61939504 0 0 Z " fill="#E5C474" transform="translate(276,142)"/>
<path d="M0 0 C0.33 0 0.66 0 1 0 C1 2.64 1 5.28 1 8 C-0.98 8.99 -0.98 8.99 -3 10 C-2.39009109 6.44219804 -1.4216319 3.3171411 0 0 Z " fill="#DBB264" transform="translate(207,134)"/>
<path d="M0 0 C1.1725131 0.95117134 2.33787015 1.91117009 3.5 2.875 C4.47453125 3.67550781 4.47453125 3.67550781 5.46875 4.4921875 C5.9740625 4.98976563 6.479375 5.48734375 7 6 C7 6.66 7 7.32 7 8 C5.68 8 4.36 8 3 8 C0 2.25 0 2.25 0 0 Z " fill="#E7B966" transform="translate(293,122)"/>
<path d="M0 0 C0.66 1.32 1.32 2.64 2 4 C-0.97 6.475 -0.97 6.475 -4 9 C-4 7.35 -4 5.7 -4 4 C-2.68 4 -1.36 4 0 4 C0 2.68 0 1.36 0 0 Z " fill="#B65957" transform="translate(329,235)"/>
<path d="M0 0 C0.6875 1.8125 0.6875 1.8125 1 4 C-0.1875 5.8125 -0.1875 5.8125 -2 7 C-4.1875 6.6875 -4.1875 6.6875 -6 6 C-4 4 -2 2 0 0 Z " fill="#4A87AB" transform="translate(238,162)"/>
<path d="M0 0 C0.66 0.33 1.32 0.66 2 1 C1.67 1.99 1.34 2.98 1 4 C0.34 4 -0.32 4 -1 4 C-1 4.66 -1 5.32 -1 6 C-2.65 6.66 -4.3 7.32 -6 8 C-5.67 7.01 -5.34 6.02 -5 5 C-4.34 5 -3.68 5 -3 5 C-2.5359375 4.0409375 -2.5359375 4.0409375 -2.0625 3.0625 C-1 1 -1 1 0 0 Z " fill="#2B6EA0" transform="translate(244,157)"/>
<path d="M0 0 C2.9375 0.75 2.9375 0.75 6 2 C6.875 4.125 6.875 4.125 7 6 C6.01 6 5.02 6 4 6 C1.8125 3 1.8125 3 0 0 Z " fill="#E9B241" transform="translate(263,129)"/>
<path d="M0 0 C-4.48074195 3.36055646 -7.60550707 3.27429625 -13 3 C-4.58823529 -1.52941176 -4.58823529 -1.52941176 0 0 Z " fill="#717991" transform="translate(222,326)"/>
<path d="M0 0 C0 0.66 0 1.32 0 2 C-1.62626404 3.38232443 -3.2925002 4.71937515 -5 6 C-5.99 5.34 -6.98 4.68 -8 4 C-2.25 0 -2.25 0 0 0 Z " fill="#1F315E" transform="translate(342,309)"/>
<path d="M0 0 C2.375 -0.125 2.375 -0.125 5 0 C5.66 0.66 6.32 1.32 7 2 C6.67 2.99 6.34 3.98 6 5 C5.67 4.34 5.34 3.68 5 3 C4.01 3.495 4.01 3.495 3 4 C2.01 3.67 1.02 3.34 0 3 C0 2.01 0 1.02 0 0 Z " fill="#AD2A2C" transform="translate(239,267)"/>
<path d="M0 0 C0 3.51716303 -0.82445585 4.37121748 -3 7 C-3.99 6.67 -4.98 6.34 -6 6 C-2.25 1.125 -2.25 1.125 0 0 Z " fill="#E3B66B" transform="translate(283,247)"/>
<path d="M0 0 C0.99 0.33 1.98 0.66 3 1 C3.33 3.64 3.66 6.28 4 9 C0.06153846 5.67692308 0.06153846 5.67692308 -0.25 2.25 C-0.1675 1.5075 -0.085 0.765 0 0 Z " fill="#BA4448" transform="translate(186,239)"/>
<path d="M0 0 C3 2 3 2 3.6875 5.125 C3.8421875 6.548125 3.8421875 6.548125 4 8 C3.01 8.495 3.01 8.495 2 9 C0.50178941 5.62902617 0 3.79557881 0 0 Z " fill="#B35F5E" transform="translate(370,229)"/>
<path d="M0 0 C0.6875 1.625 0.6875 1.625 1 4 C-1.33333333 9.66666667 -1.33333333 9.66666667 -4 11 C-2.95902388 7.13351728 -1.96301592 3.50538557 0 0 Z " fill="#BC7272" transform="translate(337,224)"/>
<path d="M0 0 C0.66 0 1.32 0 2 0 C2 1.98 2 3.96 2 6 C0.02 6.99 0.02 6.99 -2 8 C-2 7.01 -2 6.02 -2 5 C-1.34 5 -0.68 5 0 5 C0 3.35 0 1.7 0 0 Z " fill="#424E6F" transform="translate(287,220)"/>
<path d="M0 0 C4.20626034 1.50223584 5.73900021 4.28550034 8 8 C7.01 8 6.02 8 5 8 C4.34 7.34 3.68 6.68 3 6 C3 5.01 3 4.02 3 3 C2.34 3 1.68 3 1 3 C0.67 2.01 0.34 1.02 0 0 Z " fill="#6497B5" transform="translate(259,148)"/>
<path d="M0 0 C0.33 1.32 0.66 2.64 1 4 C0.01 4 -0.98 4 -2 4 C-2.33 5.65 -2.66 7.3 -3 9 C-3.99 9 -4.98 9 -6 9 C-5.18914873 7.68648079 -4.37626942 6.37421332 -3.5625 5.0625 C-3.11003906 4.33160156 -2.65757812 3.60070312 -2.19140625 2.84765625 C-1 1 -1 1 0 0 Z " fill="#D9A55D" transform="translate(232,103)"/>
<path d="M0 0 C1.65 0.33 3.3 0.66 5 1 C2.28817788 3.60334924 1.10866187 3.99456691 -2.75 4.1875 C-3.8225 4.125625 -4.895 4.06375 -6 4 C-3 2 -3 2 0 2 C0 1.34 0 0.68 0 0 Z " fill="#22315C" transform="translate(317,350)"/>
<path d="M0 0 C1.9453125 -0.29296875 1.9453125 -0.29296875 4.125 -0.1875 C5.40375 -0.125625 6.6825 -0.06375 8 0 C4.99382731 3.00617269 2.17618402 2.59585316 -2 3 C-1.34 2.01 -0.68 1.02 0 0 Z " fill="#BC2B1D" transform="translate(323,268)"/>
<path d="M0 0 C0.556875 0.28875 1.11375 0.5775 1.6875 0.875 C4.08494645 2.0413253 6.51596939 3.0339881 9 4 C7.375 4.6875 7.375 4.6875 5 5 C1.75 3.5625 1.75 3.5625 -1 2 C-0.67 1.34 -0.34 0.68 0 0 Z " fill="#BB4A18" transform="translate(294,260)"/>
<path d="M0 0 C0.66 0.99 1.32 1.98 2 3 C0.71034824 4.37562854 -0.62689293 5.70766393 -2 7 C-2.66 7 -3.32 7 -4 7 C-2.79618552 4.50638429 -1.54571278 2.31856917 0 0 Z " fill="#AF2B2E" transform="translate(300,230)"/>
<path d="M0 0 C0.66 0.33 1.32 0.66 2 1 C-0.85276137 3.93200474 -3.65079784 6.64315404 -7 9 C-5.44499019 5.18315774 -2.96404505 2.80804268 0 0 Z " fill="#E8CC8D" transform="translate(151,218)"/>
<path d="M0 0 C4.875 2.625 4.875 2.625 6 6 C6.66 6.33 7.32 6.66 8 7 C6.35 6.67 4.7 6.34 3 6 C3 5.01 3 4.02 3 3 C2.01 2.67 1.02 2.34 0 2 C0 1.34 0 0.68 0 0 Z " fill="#174783" transform="translate(237,199)"/>
<path d="M0 0 C0.33 0.66 0.66 1.32 1 2 C-0.1875 4.5625 -0.1875 4.5625 -2 7 C-3.32 7.33 -4.64 7.66 -6 8 C-4.02 5.36 -2.04 2.72 0 0 Z " fill="#DDB778" transform="translate(239,95)"/>
<path d="M0 0 C0.268125 0.556875 0.53625 1.11375 0.8125 1.6875 C2.10122647 4.19712523 3.52926478 6.59334236 5 9 C4.01 9 3.02 9 2 9 C2 8.34 2 7.68 2 7 C1.01 6.67 0.02 6.34 -1 6 C-0.67 4.02 -0.34 2.04 0 0 Z " fill="#EBB127" transform="translate(166,242)"/>
<path d="M0 0 C0.66 0 1.32 0 2 0 C2 1.98 2 3.96 2 6 C1.34 6 0.68 6 0 6 C0 6.99 0 7.98 0 9 C-0.66 8.67 -1.32 8.34 -2 8 C-1.34 5.36 -0.68 2.72 0 0 Z " fill="#DEAD3A" transform="translate(304,144)"/>
<path d="M0 0 C1.98 0 3.96 0 6 0 C6.66 1.32 7.32 2.64 8 4 C2.25 2.25 2.25 2.25 0 0 Z " fill="#5B6282" transform="translate(179,347)"/>
<path d="M0 0 C0.99 0.33 1.98 0.66 3 1 C2.34 2.32 1.68 3.64 1 5 C-0.32 4.34 -1.64 3.68 -3 3 C-2.01 2.01 -1.02 1.02 0 0 Z " fill="#37476D" transform="translate(324,320)"/>
<path d="M0 0 C2.0625 0.4375 2.0625 0.4375 4 1 C1.03 3.475 1.03 3.475 -2 6 C-1.125 1.125 -1.125 1.125 0 0 Z " fill="#5E87A5" transform="translate(325,299)"/>
<path d="M0 0 C1.65 0 3.3 0 5 0 C5 0.66 5 1.32 5 2 C6.65 1.67 8.3 1.34 10 1 C9.67 1.66 9.34 2.32 9 3 C3.46153846 3.36923077 3.46153846 3.36923077 1.125 1.5 C0.75375 1.005 0.3825 0.51 0 0 Z " fill="#B74646" transform="translate(208,266)"/>
<path d="M0 0 C0 3.69418201 -1.28179295 5.77836178 -3 9 C-3.66 8.67 -4.32 8.34 -5 8 C-2.25 2.25 -2.25 2.25 0 0 Z " fill="#C67868" transform="translate(288,241)"/>
<path d="M0 0 C0.93065133 2.60582371 1.14917407 3.64198224 0.0625 6.25 C-0.4634375 7.11625 -0.4634375 7.11625 -1 8 C-1.66 8 -2.32 8 -3 8 C-3 6.68 -3 5.36 -3 4 C-2.34 4 -1.68 4 -1 4 C-0.67 2.68 -0.34 1.36 0 0 Z " fill="#A13538" transform="translate(333,229)"/>
<path d="M0 0 C2.31 1.98 4.62 3.96 7 6 C6.67 6.66 6.34 7.32 6 8 C4.125 7.375 4.125 7.375 2 6 C0.75 2.875 0.75 2.875 0 0 Z " fill="#769EB7" transform="translate(282,172)"/>
<path d="M0 0 C2.31 1.98 4.62 3.96 7 6 C6.01 6.495 6.01 6.495 5 7 C2.375 5.8125 2.375 5.8125 0 4 C0 2.68 0 1.36 0 0 Z " fill="#6D96B3" transform="translate(271,160)"/>
<path d="M0 0 C2.31 1.65 4.62 3.3 7 5 C4 6 4 6 1 5 C0.67 3.35 0.34 1.7 0 0 Z " fill="#E0C272" transform="translate(280,111)"/>
</svg>
